<?xml version="1.0" encoding="utf-8"?>
<!-- Generator: Adobe Illustrator 16.0.0, SVG Export Plug-In . SVG Version: 6.00 Build 0)  -->
<!DOCTYPE svg PUBLIC "-//W3C//DTD SVG 1.1//EN" "http://www.w3.org/Graphics/SVG/1.1/DTD/svg11.dtd">
<svg version="1.1" id="Layer_1" xmlns="http://www.w3.org/2000/svg" xmlns:xlink="http://www.w3.org/1999/xlink" x="0px" y="0px"
	 width="500px" height="500px" viewBox="0 0 500 500" enable-background="new 0 0 500 500" xml:space="preserve">
<circle fill="#5CBA47" cx="249.923" cy="250.362" r="250.077"/>
<g>
	<path fill="#FFFFFF" d="M371.256,149.417c-14.856-16.633-35.303-25.793-57.574-25.793c-17.413,0-36.193,10.36-49.914,17.929
		c-4.996,2.757-11.826,6.527-13.846,6.775c-2.01-0.244-8.806-4.004-13.789-6.761c-13.687-7.573-32.432-17.944-49.967-17.944
		c-22.272,0-42.72,9.16-57.577,25.793c-14.134,15.824-21.917,36.653-21.917,58.65c0,31.424,11.284,76.11,30.185,119.542
		c8.409,19.324,17.359,36.021,25.884,48.288c10.146,14.6,18.854,21.695,26.621,21.695c3.447,0,9.758-1.462,13.298-11.254
		c3.441-9.516,6.536-20.438,9.818-32.022c8.686-30.658,19.495-68.815,36.897-68.815h1.099c7.737,0,14.664,6.627,21.173,20.261
		c6.448,13.505,11.351,31.464,16.099,48.854c3.139,11.495,6.103,22.352,9.433,31.697c3.469,9.732,9.708,11.188,13.124,11.189
		c7.728-0.001,16.427-7.206,26.596-22.026c8.503-12.393,17.472-29.256,25.939-48.766c18.997-43.781,30.339-88.133,30.339-118.643
		C393.175,186.069,385.391,165.24,371.256,149.417 M308.309,171.974c-0.178-0.012-18.17-0.873-34.547-5.21
		c-7.385-1.955-16.117-5.884-16.117-7.049c0-1.135,9.487-6.659,11.775-7.922c12.602-6.952,29.857-16.473,44.262-16.473
		c42.438,0,67.798,36.988,67.798,72.747c0,28.559-11.255,72.237-29.374,113.985c-8.055,18.564-16.882,35.188-24.854,46.806
		c-9.197,13.405-15.148,17.303-16.951,16.947c-1.107-0.219-1.244-1.003-2.105-3.42c-3.186-8.938-6.094-19.59-9.173-30.868
		c-4.878-17.865-9.92-36.339-16.823-50.797c-8.648-18.112-19.026-26.917-31.727-26.917h-1.099c-12.234,0-22.373,8.734-30.992,26.701
		c-6.88,14.341-12.105,32.785-17.158,50.623c-3.22,11.365-6.261,22.102-9.563,31.232c-0.729,2.017-0.955,3.332-2.3,3.536
		c-1.055,0.16-5.56-0.189-17.017-16.675c-7.977-11.478-16.772-27.914-24.765-46.279c-18.02-41.406-29.213-85.424-29.213-114.875
		c0-35.76,25.361-72.748,67.799-72.748c11.031,0,25.528,5.026,38.778,13.446c1.943,1.235,4.68,3.338,7.326,5.373
		c1.056,0.813,2.097,1.611,3.065,2.341c3.106,2.326,7.304,5.368,12.232,8.271c2.102,1.24,4.716,2.784,7.494,3.962
		c10.619,4.508,21.88,6.794,33.467,6.794c11.807,0,19.748-2.1,19.826-2.125c0,0,1.776-0.47,1.721-0.932
		C310.018,171.986,308.309,171.974,308.309,171.974z"/>
</g>
</svg>
