<?xml version="1.0" encoding="utf-8"?>
<!-- Generator: Adobe Illustrator 16.0.0, SVG Export Plug-In . SVG Version: 6.00 Build 0)  -->
<!DOCTYPE svg PUBLIC "-//W3C//DTD SVG 1.1//EN" "http://www.w3.org/Graphics/SVG/1.1/DTD/svg11.dtd">
<svg version="1.1" id="Layer_1" xmlns="http://www.w3.org/2000/svg" xmlns:xlink="http://www.w3.org/1999/xlink" x="0px" y="0px"
	 width="500px" height="500px" viewBox="0 0 500 500" enable-background="new 0 0 500 500" xml:space="preserve">
<circle fill="#5CBA47" cx="249.923" cy="250.362" r="250.077"/>
<g>
	<path fill="#FFFFFF" d="M306.777,395.105c-9.421,0-18.764-1.666-27.898-4.984c-40.245-14.62-77.601-38.432-108.031-68.86
		c-30.43-30.429-54.241-67.786-68.86-108.03c-4.697-12.934-6.083-26.285-4.119-39.683c1.841-12.551,6.702-24.734,14.059-35.235
		c7.39-10.547,17.241-19.318,28.49-25.368c11.995-6.45,25.088-9.721,38.916-9.721c4.3,0,8.017,3.005,8.918,7.21l14.316,66.81
		c0.648,3.025-0.281,6.173-2.469,8.361l-24.463,24.462c23.078,45.882,60.524,83.328,106.406,106.405l24.462-24.463
		c2.188-2.187,5.336-3.116,8.361-2.469l66.811,14.316c4.205,0.901,7.209,4.617,7.209,8.918c0,13.828-3.271,26.92-9.722,38.916
		c-6.049,11.247-14.821,21.1-25.368,28.49c-10.499,7.355-22.684,12.218-35.235,14.06
		C314.627,394.817,310.694,395.104,306.777,395.105L306.777,395.105z M172.045,121.865c-18.239,2.013-34.428,11.573-45.178,26.916
		c-12.088,17.253-14.908,38.474-7.734,58.222c28.106,77.372,88.601,137.867,165.973,165.972c19.748,7.174,40.968,4.356,58.221-7.733
		c15.344-10.75,24.903-26.938,26.917-45.178l-54.35-11.646l-25.548,25.546c-2.72,2.721-6.85,3.441-10.327,1.807
		c-54.265-25.492-98.189-69.416-123.682-123.68c-1.635-3.479-0.913-7.61,1.805-10.328l25.549-25.547L172.045,121.865z"/>
	<path fill="#FFFFFF" d="M379.764,258.279c-5.037,0-9.121-4.083-9.121-9.121c0-70.41-57.283-127.693-127.693-127.693
		c-5.038,0-9.121-4.083-9.121-9.121c0-5.037,4.083-9.121,9.121-9.121c38.981,0,75.628,15.179,103.191,42.743
		c27.564,27.564,42.744,64.211,42.744,103.192C388.885,254.196,384.802,258.279,379.764,258.279L379.764,258.279z"/>
	<path fill="#FFFFFF" d="M343.28,258.279c-5.037,0-9.121-4.083-9.121-9.121c0-50.292-40.917-91.209-91.21-91.209
		c-5.038,0-9.121-4.084-9.121-9.121s4.083-9.121,9.121-9.121c60.352,0,109.452,49.1,109.452,109.451
		C352.401,254.196,348.317,258.279,343.28,258.279z"/>
	<path fill="#FFFFFF" d="M306.796,258.279c-5.037,0-9.12-4.083-9.12-9.121c0-30.176-24.55-54.725-54.727-54.725
		c-5.038,0-9.121-4.084-9.121-9.121s4.083-9.121,9.121-9.121c40.235,0,72.968,32.733,72.968,72.967
		C315.917,254.196,311.834,258.279,306.796,258.279z"/>
</g>
</svg>
