<?xml version="1.0" encoding="utf-8"?>
<!-- Generator: Adobe Illustrator 16.0.0, SVG Export Plug-In . SVG Version: 6.00 Build 0)  -->
<!DOCTYPE svg PUBLIC "-//W3C//DTD SVG 1.1//EN" "http://www.w3.org/Graphics/SVG/1.1/DTD/svg11.dtd">
<svg version="1.1" id="Layer_1" xmlns="http://www.w3.org/2000/svg" xmlns:xlink="http://www.w3.org/1999/xlink" x="0px" y="0px"
	 width="500px" height="500px" viewBox="0 0 500 500" enable-background="new 0 0 500 500" xml:space="preserve">
<circle fill="#5CBA47" cx="249.923" cy="250.362" r="250.077"/>
<g>
	<g>
		<g>
			<path fill="#FFFFFF" d="M326.73,268.795v29.149h38.864v-29.149H326.73z M355.879,288.228h-19.431v-9.716h19.431V288.228z"/>
		</g>
	</g>
	<g>
		<g>
			<path fill="#FFFFFF" d="M326.73,346.525v29.148h38.864v-29.148H326.73z M355.879,365.958h-19.431v-9.716h19.431V365.958z"/>
		</g>
	</g>
	<g>
		<g>
			<path fill="#FFFFFF" d="M268.434,152.199V123.05h-38.865v29.149h-29.149v38.865h29.149v29.149h38.865v-29.149h29.148v-38.865
				H268.434z M287.865,181.348h-29.148v29.149h-19.433v-29.149h-29.148v-19.432h29.148v-29.149h19.433v29.149h29.148V181.348z"/>
		</g>
	</g>
	<g>
		<g>
			<path fill="#FFFFFF" d="M317.014,210.497V103.618H180.987v106.879h-68.014v184.609h272.056V210.497H317.014z M180.987,385.39
				h-58.297V220.213h58.297V385.39z M244.143,385.39h-24.291v-87.445h24.291V385.39z M278.149,385.39h-24.29v-87.445h24.29V385.39z
				 M307.299,385.39h-19.434v-97.162h-77.729v97.162h-19.432V113.334h116.595V385.39z M375.313,385.39h-58.299V220.213h58.299
				V385.39z"/>
		</g>
	</g>
	<g>
		<g>
			<path fill="#FFFFFF" d="M132.405,268.795v29.149h38.866v-29.149H132.405z M161.554,288.228h-19.433v-9.716h19.433V288.228z"/>
		</g>
	</g>
	<g>
		<g>
			<path fill="#FFFFFF" d="M132.405,346.525v29.148h38.866v-29.148H132.405z M161.554,365.958h-19.433v-9.716h19.433V365.958z"/>
		</g>
	</g>
</g>
</svg>
