<?xml version="1.0" encoding="utf-8"?>
<!-- Generator: Adobe Illustrator 16.0.0, SVG Export Plug-In . SVG Version: 6.00 Build 0)  -->
<!DOCTYPE svg PUBLIC "-//W3C//DTD SVG 1.1//EN" "http://www.w3.org/Graphics/SVG/1.1/DTD/svg11.dtd">
<svg version="1.1" id="Layer_1" xmlns="http://www.w3.org/2000/svg" xmlns:xlink="http://www.w3.org/1999/xlink" x="0px" y="0px"
	 width="500px" height="500px" viewBox="0 0 500 500" enable-background="new 0 0 500 500" xml:space="preserve">
<circle fill="#5CBA47" cx="249.923" cy="250.362" r="250.077"/>
<g>
	<path fill="#FFFFFF" d="M298.377,265.995c2.574,0,4.66-2.086,4.66-4.66c0-2.928,0-97.365,0-101.687
		c6.904-0.027,12.516-5.65,12.516-12.563v-39.523c0-6.929-5.637-12.565-12.564-12.565H194.957c-6.927,0-12.564,5.636-12.564,12.565
		v39.523c0,6.912,5.61,12.535,12.516,12.563V359.04c0,29.81,24.253,54.063,54.064,54.063c29.819,0,54.064-24.274,54.064-54.063
		v-75.959c0-2.573-2.086-4.66-4.66-4.66s-4.659,2.087-4.659,4.66v75.958c0,24.466-19.902,44.744-44.745,44.744
		c-24.672,0-44.745-20.071-44.745-44.744V208.271c6.064-3.315,24.657-11.509,42.002,1.122c10.895,7.935,23.849,10.455,37.458,7.296
		c3.877-0.9,7.283-2.143,10.029-3.344v47.99C293.718,263.909,295.803,265.995,298.377,265.995z M194.957,150.331
		c-1.759,0-3.245-1.486-3.245-3.245v-39.523c0-1.759,1.486-3.245,3.245-3.245h108.031c1.759,0,3.245,1.486,3.245,3.245v39.523
		c0,1.759-1.486,3.245-3.245,3.245C300.547,150.331,208.041,150.331,194.957,150.331L194.957,150.331z M251.717,201.859
		c-10.896-7.934-23.848-10.457-37.459-7.296c-3.877,0.9-7.284,2.143-10.03,3.343V159.65h89.49v43.33
		C287.656,206.295,269.063,214.492,251.717,201.859z"/>
	<path fill="#FFFFFF" d="M209.417,110.755c-2.574,0-4.66,2.087-4.66,4.66v23.816c0,2.573,2.085,4.66,4.66,4.66s4.66-2.086,4.66-4.66
		v-23.816C214.076,112.842,211.991,110.755,209.417,110.755z"/>
	<path fill="#FFFFFF" d="M229.194,110.755c-2.574,0-4.66,2.087-4.66,4.66v23.816c0,2.573,2.085,4.66,4.66,4.66s4.66-2.086,4.66-4.66
		v-23.816C233.854,112.842,231.769,110.755,229.194,110.755z"/>
	<path fill="#FFFFFF" d="M248.973,110.755c-2.574,0-4.66,2.087-4.66,4.66v23.816c0,2.573,2.086,4.66,4.66,4.66
		c2.573,0,4.659-2.086,4.659-4.66v-23.816C253.632,112.842,251.546,110.755,248.973,110.755z"/>
	<path fill="#FFFFFF" d="M265.54,259.368c0-2.573-2.085-4.659-4.659-4.659h-23.816c-2.574,0-4.66,2.086-4.66,4.659
		s2.086,4.66,4.66,4.66h23.816C263.455,264.028,265.54,261.941,265.54,259.368z"/>
	<path fill="#FFFFFF" d="M268.75,110.755c-2.573,0-4.659,2.087-4.659,4.66v23.816c0,2.573,2.086,4.66,4.659,4.66
		c2.574,0,4.66-2.086,4.66-4.66v-23.816C273.41,112.842,271.324,110.755,268.75,110.755z"/>
	<path fill="#FFFFFF" d="M288.528,110.755c-2.575,0-4.66,2.087-4.66,4.66v23.816c0,2.573,2.085,4.66,4.66,4.66
		c2.574,0,4.659-2.086,4.659-4.66v-23.816C293.188,112.842,291.103,110.755,288.528,110.755z"/>
	<path fill="#FFFFFF" d="M259.845,307.519h14.187c5.652,0,10.252-4.599,10.252-10.252v-50.117c0-5.653-4.6-10.252-10.252-10.252
		h-50.118c-5.652,0-10.251,4.599-10.251,10.252v50.117c0,5.653,4.599,10.252,10.251,10.252H238.1c2.574,0,4.66-2.086,4.66-4.66
		c0-2.573-2.086-4.659-4.66-4.659h-14.187c-0.514,0-0.932-0.418-0.932-0.933v-50.117c0-0.515,0.418-0.933,0.932-0.933h50.118
		c0.514,0,0.932,0.418,0.932,0.933v50.117c0,0.515-0.418,0.933-0.932,0.933h-14.187c-2.573,0-4.659,2.086-4.659,4.659
		C255.186,305.433,257.271,307.519,259.845,307.519z"/>
</g>
</svg>
