<?xml version="1.0" encoding="utf-8"?>
<!-- Generator: Adobe Illustrator 16.0.0, SVG Export Plug-In . SVG Version: 6.00 Build 0)  -->
<!DOCTYPE svg PUBLIC "-//W3C//DTD SVG 1.1//EN" "http://www.w3.org/Graphics/SVG/1.1/DTD/svg11.dtd">
<svg version="1.1" id="Layer_1" xmlns="http://www.w3.org/2000/svg" xmlns:xlink="http://www.w3.org/1999/xlink" x="0px" y="0px"
	 width="500px" height="500px" viewBox="0 0 500 500" enable-background="new 0 0 500 500" xml:space="preserve">
<circle fill="#5CBA47" cx="249.923" cy="250.362" r="250.077"/>
<g>
	<g>
		<g>
			<path fill="#FFFFFF" d="M415.644,243.074c-0.756-0.946-18.871-23.424-48.233-46.122c-17.341-13.406-35.042-24.109-52.609-31.813
				c-21.353-9.363-42.579-14.294-63.141-14.698c-0.909-0.025-1.821-0.04-2.737-0.04c-0.915,0-1.827,0.015-2.736,0.04
				c-20.562,0.403-41.789,5.334-63.141,14.698c-17.568,7.703-35.268,18.406-52.609,31.813
				c-29.362,22.698-47.476,45.177-48.233,46.122l-5.032,6.288l5.03,6.288c0.757,0.945,18.872,23.423,48.233,46.122
				c17.341,13.406,35.042,24.108,52.609,31.812c21.354,9.363,42.58,14.295,63.141,14.699c0.909,0.024,1.821,0.039,2.736,0.039
				s1.827-0.015,2.735-0.039c20.563-0.403,41.788-5.335,63.142-14.699c17.567-7.702,35.269-18.405,52.609-31.812
				c29.362-22.699,47.477-45.177,48.233-46.122l5.03-6.288L415.644,243.074z M164.541,301.004
				c-7.909-4.904-15.106-10.006-21.419-14.869c-18.573-14.309-32.557-28.783-39.759-36.772c7.203-7.99,21.186-22.464,39.759-36.772
				c6.313-4.865,13.51-9.966,21.419-14.871c-9.241,15.043-14.577,32.731-14.577,51.644S155.302,285.962,164.541,301.004z
				 M251.336,328.15c-0.804,0.018-1.605,0.041-2.413,0.041c-0.806,0-1.609-0.023-2.413-0.041
				c-42.354-1.28-76.416-36.129-76.416-78.788s34.062-77.509,76.416-78.79c0.804-0.017,1.607-0.04,2.413-0.04
				c0.807,0,1.609,0.024,2.413,0.04c42.354,1.28,76.416,36.13,76.416,78.79S293.69,326.869,251.336,328.15z M354.726,286.135
				c-6.314,4.864-13.51,9.965-21.42,14.869c9.241-15.042,14.576-32.729,14.576-51.642c0-18.911-5.337-36.6-14.576-51.644
				c7.91,4.907,15.105,10.007,21.42,14.871c18.572,14.309,32.555,28.781,39.758,36.772
				C387.28,257.354,373.298,271.826,354.726,286.135z"/>
		</g>
	</g>
	<g>
		<g>
			<path fill="#FFFFFF" d="M248.923,192.125c-31.561,0-57.237,25.678-57.237,57.238c0,31.56,25.676,57.236,57.237,57.236
				c31.561,0,57.238-25.677,57.238-57.236C306.161,217.802,280.484,192.125,248.923,192.125z M248.923,286.47
				c-20.461,0-37.107-16.646-37.107-37.107s16.646-37.107,37.107-37.107c20.461,0,37.108,16.646,37.108,37.107
				S269.385,286.47,248.923,286.47z"/>
		</g>
	</g>
</g>
</svg>
