<?xml version="1.0" encoding="utf-8"?>
<!-- Generator: Adobe Illustrator 16.0.0, SVG Export Plug-In . SVG Version: 6.00 Build 0)  -->
<!DOCTYPE svg PUBLIC "-//W3C//DTD SVG 1.1//EN" "http://www.w3.org/Graphics/SVG/1.1/DTD/svg11.dtd">
<svg version="1.1" id="Layer_1" xmlns="http://www.w3.org/2000/svg" xmlns:xlink="http://www.w3.org/1999/xlink" x="0px" y="0px"
	 width="500px" height="500px" viewBox="0 0 500 500" enable-background="new 0 0 500 500" xml:space="preserve">
<circle fill="#5CBA47" cx="249.923" cy="250.362" r="250.077"/>
<g>
	<g>
		<path fill="#FFFFFF" d="M409.06,245.7l-25.381-25.381c-6.399-6.379-13.862-11.59-22.057-15.4
			c4.943-10.78,7.508-22.499,7.517-34.358v-35.155c0-2.861-2.319-5.18-5.18-5.18h-35.156c-11.86,0.007-23.581,2.569-34.362,7.511
			c-3.81-8.193-9.021-15.657-15.4-22.055l-25.38-25.382c-2.023-2.022-5.302-2.022-7.326,0l-25.381,25.382
			c-6.379,6.398-11.59,13.862-15.4,22.055c-10.779-4.94-22.496-7.502-34.353-7.511h-35.156c-2.861,0-5.18,2.319-5.18,5.18v35.155
			c0.007,11.86,2.568,23.581,7.511,34.363c-8.193,3.809-15.657,9.021-22.056,15.4l-25.382,25.382c-2.021,2.021-2.021,5.301,0,7.323
			l25.382,25.382c6.398,6.379,13.862,11.59,22.056,15.399c-4.94,10.779-7.502,22.495-7.511,34.353v35.155
			c0,2.86,2.319,5.181,5.18,5.181h35.156c11.861-0.007,23.581-2.569,34.363-7.512c3.81,8.193,9.021,15.657,15.4,22.057
			l25.381,25.381c2.022,2.022,5.301,2.022,7.325,0l25.381-25.381c6.379-6.399,11.591-13.863,15.4-22.057
			c10.778,4.941,22.495,7.503,34.352,7.512h35.156c2.86,0,5.18-2.32,5.18-5.181v-35.155c-0.007-11.86-2.568-23.581-7.511-34.362
			c8.193-3.81,15.658-9.021,22.056-15.4l25.382-25.381C411.083,250.996,411.08,247.721,409.06,245.7z M298.253,147.392
			c9.563-4.475,19.992-6.798,30.55-6.807h29.977v29.976c-0.005,10.562-2.327,20.994-6.802,30.562
			c-7.522-2.356-15.359-3.557-23.241-3.559h-2.072c-10.889-0.002-21.656,2.292-31.597,6.734c4.441-9.941,6.737-20.708,6.733-31.597
			v-2.072C301.803,162.748,300.604,154.913,298.253,147.392z M326.664,207.923h2.072c6.118,0.013,12.207,0.856,18.098,2.507
			c-2.715,4.103-5.84,7.921-9.323,11.396l-1.099,1.098c-13.572,13.641-32.037,21.289-51.28,21.238l-22.626,0.021l16.534-16.534
			C291.644,214.977,308.792,207.874,326.664,207.923z M291.441,170.628L291.441,170.628v2.072
			c0.049,17.869-7.055,35.017-19.726,47.618l-16.533,16.54v-22.652c-0.052-19.243,7.595-37.708,21.236-51.281l1.099-1.098
			c3.475-3.484,7.293-6.607,11.396-9.324C290.574,158.403,291.425,164.501,291.441,170.628z M228.288,123.005l21.714-21.714
			l21.713,21.714c5.667,5.686,10.268,12.342,13.588,19.653c-5.474,3.353-10.541,7.328-15.1,11.846l-1.099,1.098
			c-8.463,8.468-14.98,18.676-19.103,29.914c-4.123-11.236-10.639-21.441-19.099-29.908l-1.098-1.098
			c-4.561-4.52-9.629-8.497-15.104-11.851C218.02,135.348,222.622,128.691,228.288,123.005z M208.563,170.628
			c0.012-6.119,0.856-12.207,2.507-18.099c4.103,2.717,7.921,5.841,11.396,9.324l1.099,1.098
			c13.642,13.573,21.289,32.038,21.237,51.281v22.651l-16.534-16.533c-12.67-12.613-19.767-29.772-19.704-47.65V170.628
			L208.563,170.628z M220.959,227.648l16.539,16.534h-22.652c-19.243,0.051-37.708-7.596-51.28-21.237l-1.098-1.098
			c-3.484-3.476-6.607-7.293-9.324-11.396c5.899-1.66,11.997-2.511,18.125-2.528h2.072
			C191.21,207.875,208.357,214.978,220.959,227.648z M141.225,140.585h29.976c10.562,0.005,20.994,2.327,30.561,6.801
			c-2.357,7.523-3.557,15.359-3.559,23.242v2.072c-0.003,10.888,2.291,21.656,6.734,31.597c-9.941-4.442-20.708-6.736-31.597-6.734
			h-2.072c-7.881,0-15.716,1.195-23.237,3.548c-4.475-9.563-6.798-19.992-6.806-30.551V140.585L141.225,140.585z M123.645,271.075
			l-21.713-21.713l21.713-21.714c5.687-5.667,12.342-10.269,19.653-13.587c3.353,5.474,7.328,10.54,11.846,15.099l1.098,1.098
			c8.468,8.462,18.675,14.98,29.914,19.104c-11.236,4.123-21.441,10.639-29.908,19.098l-1.098,1.099
			c-4.521,4.562-8.497,9.629-11.852,15.104C135.988,281.345,129.332,276.743,123.645,271.075z M201.752,351.333
			c-9.563,4.475-19.993,6.799-30.551,6.806h-29.976v-29.976c0.005-10.562,2.327-20.994,6.801-30.561
			c7.522,2.356,15.359,3.556,23.242,3.558h2.072c10.889,0.004,21.656-2.291,31.597-6.733c-4.443,9.942-6.737,20.709-6.734,31.598
			v2.071C198.203,335.977,199.399,343.812,201.752,351.333z M173.34,290.801h-2.072c-6.119-0.013-12.207-0.855-18.099-2.507
			c2.716-4.103,5.84-7.921,9.324-11.396l1.098-1.098c13.573-13.643,32.038-21.289,51.281-21.238l22.625-0.021l-16.534,16.533
			C208.361,283.748,191.212,290.851,173.34,290.801z M208.563,328.096v-2.071c-0.048-17.87,7.054-35.018,19.725-47.619
			l16.534-16.539v22.652c0.051,19.242-7.596,37.708-21.237,51.279l-1.098,1.1c-3.475,3.482-7.293,6.606-11.396,9.322
			C209.431,340.322,208.581,334.225,208.563,328.096z M271.716,375.72l-21.713,21.714l-21.714-21.714
			c-5.664-5.679-10.266-12.326-13.587-19.627c5.475-3.361,10.541-7.345,15.1-11.872l1.098-1.099
			c8.462-8.468,14.98-18.675,19.104-29.913c4.123,11.236,10.638,21.441,19.097,29.908l1.099,1.098
			c4.559,4.528,9.627,8.513,15.105,11.873C281.983,363.392,277.381,370.04,271.716,375.72z M291.441,328.096
			c-0.013,6.118-0.855,12.207-2.508,18.099c-4.102-2.717-7.921-5.84-11.396-9.323l-1.098-1.099
			c-13.642-13.573-21.288-32.037-21.237-51.28v-22.626l16.533,16.534c12.665,12.605,19.76,29.755,19.705,47.624V328.096z
			 M279.047,271.075l-16.541-16.533h22.652c19.243-0.052,37.708,7.596,51.28,21.236l1.098,1.1c3.484,3.475,6.607,7.293,9.324,11.396
			c-5.9,1.66-11.996,2.51-18.124,2.527h-2.072C308.793,290.85,291.647,283.746,279.047,271.075z M358.779,358.139h-29.977
			c-10.562-0.004-20.993-2.325-30.562-6.801c2.358-7.522,3.558-15.358,3.56-23.242v-2.071c0.004-10.889-2.292-21.655-6.733-31.598
			c9.94,4.442,20.708,6.737,31.597,6.733h2.072c7.88,0.001,15.715-1.195,23.236-3.548c4.476,9.563,6.799,19.992,6.807,30.551
			V358.139z M376.36,271.075c-5.68,5.665-12.326,10.267-19.627,13.587c-3.361-5.474-7.346-10.54-11.873-15.099l-1.098-1.099
			c-8.468-8.461-18.675-14.979-29.914-19.103c11.237-4.123,21.441-10.639,29.908-19.098l1.099-1.098
			c4.527-4.56,8.511-9.628,11.872-15.104c7.301,3.321,13.949,7.922,19.627,13.587l21.719,21.714L376.36,271.075z"/>
	</g>
</g>
</svg>
