<?xml version="1.0" encoding="utf-8"?>
<!-- Generator: Adobe Illustrator 16.0.0, SVG Export Plug-In . SVG Version: 6.00 Build 0)  -->
<!DOCTYPE svg PUBLIC "-//W3C//DTD SVG 1.1//EN" "http://www.w3.org/Graphics/SVG/1.1/DTD/svg11.dtd">
<svg version="1.1" id="Capa_1" xmlns="http://www.w3.org/2000/svg" xmlns:xlink="http://www.w3.org/1999/xlink" x="0px" y="0px"
	 width="2732px" height="2732px" viewBox="0 0 2732 2732" enable-background="new 0 0 2732 2732" xml:space="preserve">
<g>
	<rect x="75.25" y="881.969" fill="#1976D2" width="577.288" height="1774.781"/>
	<path fill="#1976D2" d="M2224.994,902.782c-6.132-1.937-11.939-4.034-18.394-5.808c-7.744-1.775-15.488-3.227-23.395-4.518
		c-30.655-6.131-64.215-10.487-103.583-10.487l0,0l0,0c-336.563,0-550.02,244.758-620.367,339.307V881.969H881.969V2656.75h577.287
		v-968.063c0,0,436.273-607.621,620.367-161.344c0,398.357,0,1129.406,0,1129.406h577.127V1459.096
		C2656.75,1190.942,2472.979,967.481,2224.994,902.782z"/>
	<circle fill="#1976D2" cx="357.602" cy="357.602" r="282.352"/>
</g>
</svg>
