<?xml version="1.0" encoding="utf-8"?>
<!-- Generator: Adobe Illustrator 16.0.0, SVG Export Plug-In . SVG Version: 6.00 Build 0)  -->
<!DOCTYPE svg PUBLIC "-//W3C//DTD SVG 1.1//EN" "http://www.w3.org/Graphics/SVG/1.1/DTD/svg11.dtd">
<svg version="1.1" id="Layer_1" xmlns="http://www.w3.org/2000/svg" xmlns:xlink="http://www.w3.org/1999/xlink" x="0px" y="0px"
	 width="650px" height="650px" viewBox="0 0 650 650" enable-background="new 0 0 650 650" xml:space="preserve">
<g>
	<g>
		<defs>
			<path id="SVGID_1_" d="M432.332,499.654c-4.295,0-7.675,3.506-7.675,7.799v29.911h-30.104c-4.295,0-7.897,3.574-7.897,7.867
				v44.115c0,4.296,3.603,7.65,7.897,7.65h30.003c-11.088,11.109-8.243,16.27,0.012,15.663c8.64-0.623,23.187-7.429,33.976-20.26
				c-4.701-3.555-7.285-9.943-7.285-17.748v-0.022c0-5.146,0.928-10.918,3.073-16.923c0.836-2.324,2.605-4.209,4.889-5.149
				c2.271-0.947,4.845-0.884,7.075,0.179l0.938,0.447c1.574-1.407,3.452-1.949,4.961-1.229c2.336,1.103,2.908,4.804,1.271,8.253
				c-1.633,3.452-4.844,5.348-7.179,4.242c-1.502-0.708-2.282-2.502-2.2-4.606l-0.949-0.447c-0.469-0.229-0.895-0.115-1.104-0.033
				c-0.208,0.085-0.593,0.313-0.779,0.825c-3.742,10.473-3.356,20.646,0.561,25.229c0.688,0.801,1.491,1.439,2.399,1.865
				c6.074,2.854,16.101-3.668,22.843-14.871c0.281-0.47,0.208-0.917,0.135-1.137c-0.061-0.219-0.237-0.614-0.718-0.832l-0.949-0.45
				c-1.573,1.396-3.439,1.927-4.95,1.22c-2.125-1.011-2.793-4.163-1.646-7.317c0.104-0.314,0.229-0.621,0.374-0.935
				c1.64-3.45,4.849-5.365,7.182-4.26c0.323,0.155,0.604,0.296,0.854,0.589h0.011c0.928,0.875,1.396,2.364,1.334,4.021l0.948,0.457
				c2.222,1.054,3.908,3,4.617,5.355c0.719,2.365,0.396,4.914-0.876,7.029c-3.241,5.389-7.012,9.736-10.974,12.953h-0.011
				c-5.992,4.97-12.386,7.056-18.058,5.867c-2.365,6.201-13.74,21.378-27.61,27.701c-3.89,1.765-7.969,2.849-12.061,2.849v1.604
				c0,2.802,1.428,5.311,3.658,6.668c1.18,0.729,2.526,1.205,4.017,1.205h44.115c4.293,0,7.846-3.578,7.846-7.873v-30.13h29.932
				c4.293,0,7.775-3.354,7.775-7.65v-44.115c0-4.293-3.482-7.867-7.775-7.867h-29.97c0.008-0.006,0.017-0.013,0.027-0.026
				c11.017-11.037,8.171-16.086-0.062-15.48c-8.639,0.625-23.179,7.492-33.963,20.321c0.76,1.293,1.197,2.793,1.197,4.397
				c0,2.324-0.918,4.429-2.408,5.994c-1.573,1.645-3.792,2.668-6.252,2.668c-3.866,0-7.148-2.545-8.264-6.046
				c-0.249-0.823-0.394-1.711-0.394-2.616c0-4.783,3.883-8.66,8.664-8.66c0.782,0,1.553,0.104,2.272,0.302
				c0.989-2.052,2.686-4.721,4.894-7.607c7.316-9.566,20.582-21.553,34.325-21.553v-1.604c0-4.293-3.553-7.799-7.846-7.799H432.332z
				"/>
		</defs>
		<use xlink:href="#SVGID_1_"  overflow="visible" fill="#F2F4F6"/>
		<clipPath id="SVGID_2_">
			<use xlink:href="#SVGID_1_"  overflow="visible"/>
		</clipPath>
	</g>
</g>
<g>
	<g>
		<defs>
			<path id="SVGID_3_" d="M347.582,459.765c-2.354,0-4.208,1.922-4.208,4.276v16.401h-16.507c-2.355,0-4.331,1.959-4.331,4.313
				v24.19c0,2.354,1.976,4.194,4.331,4.194h16.451c-6.08,6.093-4.521,8.921,0.006,8.589c4.737-0.343,12.715-4.074,18.63-11.108
				c-2.577-1.95-3.995-5.453-3.995-9.732v-0.011c0-2.824,0.51-5.989,1.686-9.28c0.457-1.276,1.429-2.31,2.68-2.823
				c1.246-0.52,2.658-0.486,3.88,0.098l0.515,0.244c0.863-0.771,1.892-1.068,2.721-0.673c1.279,0.605,1.595,2.634,0.697,4.525
				c-0.897,1.891-2.657,2.932-3.938,2.325c-0.822-0.388-1.252-1.372-1.205-2.525l-0.521-0.245c-0.258-0.126-0.492-0.063-0.606-0.018
				c-0.114,0.045-0.326,0.172-0.428,0.45c-2.052,5.743-1.842,11.321,0.309,13.834c0.377,0.441,0.817,0.791,1.314,1.023
				c3.331,1.565,8.828-2.011,12.525-8.153c0.155-0.258,0.114-0.504,0.073-0.624c-0.034-0.119-0.131-0.337-0.393-0.455l-0.521-0.248
				c-0.863,0.768-1.888,1.058-2.715,0.668c-1.165-0.554-1.53-2.28-0.902-4.012c0.057-0.172,0.125-0.341,0.206-0.511
				c0.898-1.892,2.657-2.942,3.937-2.337c0.178,0.087,0.332,0.161,0.47,0.323h0.004c0.509,0.48,0.767,1.297,0.732,2.205L379,494.92
				c1.218,0.577,2.144,1.644,2.531,2.937c0.394,1.297,0.218,2.694-0.48,3.853c-1.777,2.955-3.845,5.34-6.018,7.103h-0.005
				c-3.286,2.727-6.793,3.869-9.901,3.218c-1.298,3.4-7.535,11.722-15.14,15.189c-2.132,0.967-4.37,1.561-6.613,1.561v0.881
				c0,1.537,0.783,2.913,2.007,3.656c0.646,0.399,1.384,0.66,2.201,0.66h24.189c2.354,0,4.302-1.961,4.302-4.316V513.14h16.412
				c2.355,0,4.263-1.841,4.263-4.194v-24.19c0-2.354-1.907-4.313-4.263-4.313h-16.433c0.004-0.004,0.009-0.008,0.016-0.015
				c6.04-6.052,4.48-8.821-0.035-8.489c-4.736,0.343-12.708,4.109-18.622,11.143c0.416,0.709,0.657,1.532,0.657,2.412
				c0,1.273-0.504,2.428-1.321,3.286c-0.862,0.902-2.079,1.463-3.427,1.463c-2.122,0-3.921-1.395-4.531-3.315
				c-0.139-0.449-0.217-0.938-0.217-1.434c0-2.623,2.127-4.749,4.751-4.749c0.43,0,0.852,0.058,1.245,0.166
				c0.543-1.125,1.473-2.589,2.685-4.172c4.012-5.246,11.285-11.817,18.82-11.817v-0.88c0-2.354-1.948-4.276-4.302-4.276H347.582z"
				/>
		</defs>
		<use xlink:href="#SVGID_3_"  overflow="visible" fill="#F2F4F6"/>
		<clipPath id="SVGID_4_">
			<use xlink:href="#SVGID_3_"  overflow="visible"/>
		</clipPath>
	</g>
</g>
</svg>
