<?xml version="1.0" encoding="utf-8"?>
<!-- Generator: Adobe Illustrator 16.0.0, SVG Export Plug-In . SVG Version: 6.00 Build 0)  -->
<!DOCTYPE svg PUBLIC "-//W3C//DTD SVG 1.1//EN" "http://www.w3.org/Graphics/SVG/1.1/DTD/svg11.dtd">
<svg version="1.1" id="Layer_1" xmlns="http://www.w3.org/2000/svg" xmlns:xlink="http://www.w3.org/1999/xlink" x="0px" y="0px"
	 width="682px" height="682px" viewBox="0 0 682 682" enable-background="new 0 0 682 682" xml:space="preserve">
<path fill="#FFFFFF" d="M544.166,92.896C484.35,33.01,404.798,0.015,320.049-0.021C145.415-0.021,3.288,142.103,3.218,316.783
	c-0.023,55.84,14.564,110.349,42.291,158.396L0.561,639.354l167.957-44.059c46.279,25.245,98.38,38.548,151.403,38.563h0.133
	c174.614,0,316.757-142.134,316.823-316.822C636.911,232.377,603.986,152.779,544.166,92.896z M320.049,580.354h-0.109
	c-47.25-0.02-93.592-12.718-134.029-36.706l-9.611-5.71L76.63,564.084l26.603-97.174l-6.264-9.963
	c-26.361-41.928-40.281-90.389-40.257-140.145C56.767,171.612,174.901,53.49,320.154,53.49
	c70.338,0.023,136.456,27.45,186.174,77.225c49.717,49.776,77.08,115.938,77.057,186.303
	C583.322,462.219,465.196,580.354,320.049,580.354z M464.493,383.128c-7.914-3.965-46.837-23.109-54.095-25.756
	c-7.251-2.642-12.535-3.957-17.807,3.965c-5.281,7.922-20.449,25.757-25.07,31.036c-4.62,5.284-9.232,5.947-17.15,1.982
	c-7.918-3.961-33.425-12.323-63.665-39.293c-23.532-20.991-39.418-46.915-44.039-54.837c-4.613-7.93-0.039-11.801,3.473-16.156
	c8.57-10.642,17.151-21.799,19.789-27.079c2.642-5.284,1.319-9.909-0.663-13.87c-1.975-3.961-17.807-42.927-24.402-58.782
	c-6.431-15.43-12.952-13.346-17.814-13.588c-4.613-0.23-9.893-0.277-15.173-0.277c-5.276,0-13.854,1.979-21.112,9.908
	c-7.255,7.926-27.704,27.075-27.704,66.041s28.367,76.609,32.324,81.892c3.958,5.284,55.825,85.245,135.235,119.532
	c18.887,8.164,33.631,13.03,45.131,16.679c18.966,6.025,36.219,5.175,49.861,3.138c15.212-2.275,46.833-19.153,53.437-37.643
	c6.595-18.494,6.595-34.342,4.612-37.647C477.688,389.072,472.407,387.094,464.493,383.128z"/>
</svg>
