<?xml version="1.0" encoding="utf-8"?>
<!-- Generator: Adobe Illustrator 16.0.0, SVG Export Plug-In . SVG Version: 6.00 Build 0)  -->
<!DOCTYPE svg PUBLIC "-//W3C//DTD SVG 1.1//EN" "http://www.w3.org/Graphics/SVG/1.1/DTD/svg11.dtd">
<svg version="1.1" id="Layer_1" xmlns="http://www.w3.org/2000/svg" xmlns:xlink="http://www.w3.org/1999/xlink" x="0px" y="0px"
	 width="500px" height="500px" viewBox="0 0 500 500" enable-background="new 0 0 500 500" xml:space="preserve">
<circle fill="#5CBA47" cx="249.923" cy="250.362" r="250.077"/>
<g>
	<g>
		<path fill="#FFFFFF" d="M363.592,116.454c-2.311-2.034-5.333-3.278-8.653-3.278c-7.243,0-13.114,5.872-13.114,13.114
			c0,7.244,5.871,13.115,13.114,13.115c3.32,0,6.343-1.244,8.653-3.279h23.476v75.407c0,47.003-38.239,85.243-85.242,85.243
			s-85.242-38.239-85.242-85.243v-75.407h24.13c2.311,2.035,5.333,3.279,8.654,3.279c7.244,0,13.115-5.871,13.115-13.115
			c0-7.242-5.871-13.114-13.115-13.114c-3.32,0-6.343,1.244-8.654,3.278h-43.803v95.079c0,54.522,41.809,99.458,95.047,104.445
			c-1.146,42.757-36.281,77.188-79.311,77.188c-42.968,0-78.064-34.335-79.304-77.007c24.22-4.634,42.584-25.964,42.584-51.512
			c0-28.926-23.532-52.458-52.457-52.458s-52.457,23.532-52.457,52.458c0,25.572,18.399,46.916,42.65,51.522
			c1.252,53.518,45.173,96.668,98.983,96.668c53.874,0,97.832-43.251,98.984-96.852c53.268-4.965,95.106-49.911,95.106-104.453
			v-95.079H363.592z M90.686,264.646c0-18.08,14.708-32.787,32.785-32.787c18.078,0,32.786,14.707,32.786,32.787
			c0,18.076-14.708,32.784-32.786,32.784C105.394,297.431,90.686,282.723,90.686,264.646z"/>
	</g>
</g>
</svg>
