<?xml version="1.0" encoding="utf-8"?>
<!-- Generator: Adobe Illustrator 16.0.0, SVG Export Plug-In . SVG Version: 6.00 Build 0)  -->
<!DOCTYPE svg PUBLIC "-//W3C//DTD SVG 1.1//EN" "http://www.w3.org/Graphics/SVG/1.1/DTD/svg11.dtd">
<svg version="1.1" id="Layer_1" xmlns="http://www.w3.org/2000/svg" xmlns:xlink="http://www.w3.org/1999/xlink" x="0px" y="0px"
	 width="600px" height="500px" viewBox="0 0 600 500" enable-background="new 0 0 600 500" xml:space="preserve">
<g>
	<g>
		<g>
			<g>
				<path fill="#FFFFFF" stroke="#FFFFFF" stroke-miterlimit="10" d="M51.005,82.52c14.245,0,19.867,6.561,25.491,16.121
					l12.933-6.561c-7.686-18.182-21.742-24.74-38.424-24.74c-29.241,0-43.484,17.806-43.484,45.17v43.859
					c0,27.366,14.244,45.171,43.484,45.171c24.74,0,37.111-14.057,41.985-21.554v-49.295H53.067v14.62h24.929v29.802
					c-3.75,5.06-12.559,11.246-26.991,11.246c-20.055,0-27.553-11.621-27.553-31.864v-40.111
					C23.452,94.141,30.95,82.52,51.005,82.52z"/>
				<path fill="#FFFFFF" stroke="#FFFFFF" stroke-miterlimit="10" d="M181.083,175.863c-5.435,4.873-14.245,10.871-23.805,10.871
					c-13.496,0-21.181-6.373-21.181-23.991V96.954h-14.994v69.349c0,19.495,8.811,35.238,31.114,35.238
					c14.995,0,26.053-9.746,30.175-14.245l1.688,12.745h11.997V96.954h-14.996V175.863z"/>
				<path fill="#FFFFFF" stroke="#FFFFFF" stroke-miterlimit="10" d="M235.437,53.655l-10.308,30.927h11.059l15.555-30.927H235.437z
					 M226.065,200.042h14.996V96.952h-14.996V200.042z"/>
				<path fill="#FFFFFF" stroke="#FFFFFF" stroke-miterlimit="10" d="M300.476,189.357c-10.497,0-19.307-6.183-19.307-17.431
					c0-21.556,23.618-26.803,43.859-26.803v29.428C322.593,181.299,313.781,189.357,300.476,189.357z M324.841,133.127
					c-24.741,0-58.666,8.435-58.666,38.798c0,16.871,11.622,29.616,31.865,29.616c13.867,0,22.116-5.248,28.113-12.37l1.688,10.87
					h11.995v-69.913c0-22.305-11.621-34.675-36.736-34.675c-7.685,0-19.68,1.688-32.239,8.436l4.499,12.37
					c8.247-3.75,18.743-6.936,27.74-6.936c16.681,0,21.741,7.496,21.741,17.618V133.127z"/>
			</g>
		</g>
		<g>
			<path fill="#FFFFFF" d="M7.756,442.641c2.619-0.396,5.733-0.692,9.143-0.692c6.178,0,10.577,1.434,13.493,4.151
				c2.965,2.719,4.695,6.573,4.695,11.961c0,5.437-1.681,9.885-4.794,12.949c-3.113,3.113-8.253,4.794-14.728,4.794
				c-3.064,0-5.634-0.148-7.809-0.396V442.641z M12.056,472.097c1.087,0.197,2.668,0.247,4.349,0.247
				c9.193,0,14.185-5.14,14.185-14.135c0.049-7.858-4.399-12.851-13.493-12.851c-2.224,0-3.904,0.198-5.041,0.445V472.097z"/>
			<path fill="#FFFFFF" d="M82.636,459.889H69.687v12.011h14.432v3.607H65.387v-33.312h17.99v3.608h-13.69v10.527h12.949V459.889z"
				/>
			<path fill="#FFFFFF" d="M156.875,475.507l-10.873-33.312h4.646l5.189,16.409c1.434,4.497,2.669,8.55,3.559,12.454h0.099
				c0.939-3.854,2.323-8.056,3.805-12.405l5.634-16.458h4.597l-11.911,33.312H156.875z"/>
			<path fill="#FFFFFF" d="M219.103,459.889h-12.949v12.011h14.432v3.607h-18.731v-33.312h17.99v3.608h-13.69v10.527h12.949V459.889
				z"/>
			<path fill="#FFFFFF" d="M250.835,475.507v-33.312h4.695l10.676,16.854c2.471,3.904,4.398,7.413,5.98,10.824l0.099-0.05
				c-0.396-4.448-0.495-8.501-0.495-13.69v-13.938h4.053v33.312h-4.349l-10.577-16.902c-2.323-3.707-4.547-7.513-6.227-11.121
				l-0.148,0.05c0.247,4.201,0.346,8.204,0.346,13.74v14.233H250.835z"/>
			<path fill="#FFFFFF" d="M325.319,459.889H312.37v12.011h14.432v3.607H308.07v-33.312h17.99v3.608h-13.69v10.527h12.949V459.889z"
				/>
			<path fill="#FFFFFF" d="M354.778,472.986l18.484-27.034v-0.148H356.36v-3.608h22.487v2.62l-18.386,26.936v0.148h18.633v3.607
				h-24.316V472.986z"/>
			<path fill="#FFFFFF" d="M413.398,442.195v19.72c0,7.463,3.312,10.626,7.76,10.626c4.942,0,8.105-3.262,8.105-10.626v-19.72h4.35
				v19.424c0,10.23-5.388,14.432-12.604,14.432c-6.82,0-11.96-3.904-11.96-14.234v-19.621H413.398z"/>
			<path fill="#FFFFFF" d="M483.039,459.889H470.09v12.011h14.432v3.607H465.79v-33.312h17.99v3.608h-13.69v10.527h12.949V459.889z"
				/>
			<path fill="#FFFFFF" d="M514.821,442.195h4.3v29.704h14.234v3.607h-18.534V442.195z"/>
			<path fill="#FFFFFF" d="M568.251,465.029l-3.46,10.478h-4.448l11.318-33.312h5.189l11.367,33.312h-4.597l-3.559-10.478H568.251z
				 M579.173,461.668l-3.262-9.588c-0.741-2.175-1.235-4.151-1.729-6.079h-0.099c-0.494,1.978-1.038,4.004-1.681,6.03l-3.262,9.637
				H579.173z"/>
		</g>
		<g>
			<g>
				<polygon fill="#FFFFFF" points="74.476,322.891 32.306,240.427 10.681,240.427 10.681,393.588 38.138,393.588 38.138,310.44 
					66.974,367.636 82.004,367.636 110.837,310.44 110.837,393.588 138.295,393.588 138.295,240.427 116.457,240.427 				"/>
				<path fill="#FFFFFF" d="M202.838,269.218c-28.825,0-45.359,17.419-45.359,47.79v34.063c0,28.052,16.903,44.14,46.372,44.14
					c14.653,0,30.058-5.342,39.239-13.608l3.289-2.959l-11.753-21.725l-5.141,3.496c-3.787,2.572-13.86,8.555-25.634,8.555
					c-12.727,0-18.914-4.728-18.914-14.452v-11.008h62.852v-26.501C247.789,286.189,231.825,269.218,202.838,269.218
					 M202.838,295.457c11.336,0,17.898,3.724,17.898,22.768v0.667h-35.799v-0.667C184.938,299.181,191.5,295.457,202.838,295.457"/>
				<path fill="#FFFFFF" d="M322.525,275.579c-5.531-3.341-13.098-6.362-22.361-6.362c-27.02,0-42.519,17.42-42.519,47.791v30.412
					c0,30.373,15.499,47.79,42.519,47.79c10.03,0,18.893-3.628,25.481-8.166l1.974,6.542h22.363V230.29h-27.457V275.579z
					 M285.103,346.204v-27.979c0-19.044,6.861-22.768,18.71-22.768c6.683,0,12.822,2.49,18.712,7.6v58.314
					c-5.887,5.109-12.029,7.598-18.712,7.598C291.964,368.969,285.103,365.245,285.103,346.204"/>
				<rect x="368.943" y="270.84" fill="#FFFFFF" width="27.456" height="122.748"/>
				<rect x="368.133" y="233.534" fill="#FFFFFF" width="29.079" height="31.917"/>
				<path fill="#FFFFFF" d="M476.13,359.158c-7.057,8.169-12.76,9.811-19.673,9.811c-11.851,0-18.712-3.724-18.712-22.765v-27.979
					c0-19.044,6.861-22.768,18.712-22.768c9.688,0,13.455,3.249,19.201,10.145l3.749,4.498l18.704-16.941l-2.738-4.041
					c-8.953-13.202-22.047-19.897-38.916-19.897c-29.34,0-46.168,17.417-46.168,47.788v30.412c0,30.373,16.828,47.79,46.168,47.79
					c17.351,0,29.407-6.25,39.09-20.267l2.896-4.192l-18.678-15.803L476.13,359.158z"/>
				<path fill="#FFFFFF" d="M551.384,269.218c-7.21,0-21.673,1.273-37.531,9.793l-4.282,2.3l8.604,23.657l5.529-2.514
					c9.644-4.381,19.991-6.997,27.681-6.997c15.731,0,17.901,6.459,17.901,13.44v1.19c-31.658,1.351-63.461,14.346-63.461,47.471
					c0,22.521,16.108,37.651,40.087,37.651c10.563,0,19.194-2.475,26.481-7.687l0.94,6.064h23.408v-81.244
					C596.741,284.133,581.057,269.218,551.384,269.218 M569.487,359.296c-2.202,4.758-9.353,11.499-20.94,11.499
					c-7.043,0-15.266-3.465-15.266-13.236c0-18.054,20.642-22.474,36.206-23.24V359.296z"/>
				<polygon fill="#FFFFFF" points="217.776,262.867 194.554,262.867 205.633,232.004 236.438,232.004 				"/>
			</g>
		</g>
	</g>
	<g>
		<g>
			<path id="SVGID_1_" fill="#FFFFFF" d="M445.236,21.868c-7.023,0-12.549,5.733-12.549,12.755v48.914h-49.238
				c-7.02,0-12.914,5.845-12.914,12.869v72.145c0,7.024,5.895,12.514,12.914,12.514h49.07c-18.134,18.165-13.48,26.603,0.021,25.616
				c14.128-1.023,37.92-12.151,55.563-33.137c-7.689-5.809-11.916-16.259-11.916-29.025v-0.036c0-8.417,1.519-17.859,5.028-27.675
				c1.362-3.802,4.262-6.886,7.993-8.419c3.717-1.551,7.927-1.45,11.571,0.289l1.535,0.731c2.572-2.299,5.642-3.185,8.11-2.008
				c3.819,1.805,4.759,7.854,2.08,13.496c-2.676,5.644-7.925,8.744-11.743,6.938c-2.454-1.16-3.733-4.092-3.595-7.534l-1.552-0.734
				c-0.767-0.375-1.464-0.188-1.808-0.049c-0.339,0.135-0.968,0.51-1.274,1.345c-6.118,17.128-5.49,33.763,0.916,41.263
				c1.126,1.314,2.439,2.351,3.923,3.05c9.938,4.671,26.33-5.999,37.358-24.322c0.461-0.765,0.344-1.502,0.222-1.858
				c-0.102-0.356-0.392-1.005-1.178-1.361l-1.548-0.734c-2.574,2.282-5.625,3.149-8.098,1.99c-3.476-1.653-4.571-6.804-2.689-11.968
				c0.167-0.512,0.372-1.013,0.611-1.524c2.678-5.641,7.924-8.774,11.745-6.968c0.524,0.256,0.985,0.482,1.396,0.961h0.02
				c1.516,1.435,2.284,3.868,2.182,6.579l1.547,0.748c3.632,1.722,6.395,4.906,7.554,8.757c1.175,3.871,0.648,8.037-1.432,11.496
				c-5.301,8.811-11.472,15.926-17.945,21.184h-0.021c-9.8,8.129-20.258,11.541-29.53,9.598
				c-3.869,10.141-22.47,34.957-45.159,45.305c-6.354,2.882-13.028,4.651-19.72,4.651v2.627c0,4.583,2.336,8.686,5.983,10.902
				c1.926,1.191,4.129,1.972,6.565,1.972h72.142c7.025,0,12.832-5.854,12.832-12.874v-49.274h48.954
				c7.023,0,12.719-5.488,12.719-12.513V96.405c0-7.022-5.695-12.868-12.719-12.868h-49.012c0.014-0.008,0.026-0.021,0.046-0.042
				c18.013-18.052,13.361-26.309-0.107-25.321c-14.128,1.023-37.9,12.255-55.542,33.237c1.244,2.114,1.962,4.567,1.962,7.193
				c0,3.799-1.501,7.245-3.939,9.801c-2.571,2.691-6.202,4.362-10.226,4.362c-6.324,0-11.69-4.158-13.514-9.885
				c-0.407-1.348-0.645-2.795-0.645-4.278c0-7.824,6.348-14.165,14.172-14.165c1.277,0,2.54,0.17,3.716,0.494
				c1.621-3.356,4.39-7.721,8.005-12.441c11.963-15.645,33.661-35.246,56.13-35.246v-2.621c0-7.022-5.807-12.755-12.832-12.755
				H445.236z"/>
		</g>
	</g>
</g>
</svg>
