<?xml version="1.0" encoding="utf-8"?>
<!-- Generator: Adobe Illustrator 16.0.0, SVG Export Plug-In . SVG Version: 6.00 Build 0)  -->
<!DOCTYPE svg PUBLIC "-//W3C//DTD SVG 1.1//EN" "http://www.w3.org/Graphics/SVG/1.1/DTD/svg11.dtd">
<svg version="1.1" id="Layer_1" xmlns="http://www.w3.org/2000/svg" xmlns:xlink="http://www.w3.org/1999/xlink" x="0px" y="0px"
	 width="500px" height="500px" viewBox="0 0 500 500" style="enable-background:new 0 0 500 500;" xml:space="preserve">
<style type="text/css">
<![CDATA[
	.st0{fill:#145691;}
	.st1{fill:#1C5C9E;}
	.st2{fill:#FFFFFF;}
]]>
</style>
<circle class="st0" cx="250" cy="250" r="250"/>
<path class="st1" d="M245,0.1C109.2,2.7,0,113.6,0,250c0,136.4,109.2,247.3,245,249.9V0.1z"/>
<g>
	<g>
		<g>
			<g>
				<path class="st2" d="M341,316.3C340.9,316.3,340.7,316.5,341,316.3L341,316.3z"/>
				<path class="st2" d="M412.6,415.7c-2.9-20.2-8.3-40.1-13.1-59.9c-1.9-7.8-6.3-14.5-12.8-19.5c-13.4-10.5-29.1-15.8-45.3-19.8
					c-1.1,12.5-1.8,24.2-3.2,35.8c-0.4,3.4,0.2,4.9,3.1,6.6c15.9,9.2,22.1,23.3,20.5,41.3c-0.9,10.3-1.3,20.7-2.8,30.9
					c-1.7,11.3-3.2,22.8-6.9,33.5c-4.1,11.8-16,16.3-27.3,12.4c-3.7-1.3-5.6-3.9-4.9-7.8c0.7-3.7,3-5.9,7.1-6
					c11-0.3,13.4-1.6,15.1-12.8c2.1-13.4,3.1-26.9,4.3-40.4c0.6-7.5,1.7-15.2,0.5-22.4c-1.9-11.5-12.1-19.1-24.3-19.9
					c-11.4-0.8-22,6.8-26.5,19c-4.6,12.3-9.1,24.7-13.5,37.1c-1.5,4.2-2.8,8.6-3.8,13c-2.4,10.5-1.2,12.8,8.4,17.5
					c3.5,1.8,5.4,5,3.6,8.3c-1.3,2.3-4.7,5-7.1,4.9c-10.9-0.2-20-9.6-19.8-20.6c0.1-6.7,0.8-13.6,2.9-20c5.2-16.1,11.1-32,17.2-47.7
					c4.7-12.1,13.5-20.3,26.1-24c4.3-1.2,8.8-1.6,13.6-2.4c3.2-12.2,3.8-24.7,1.8-37.2c-0.3-1.6-1.3-4-2.6-4.4
					c-7.2-2.4-14.6-4.3-22.1-6.5c-8.1,26.1-19.2,50.2-34.4,74.2c-1.7-9.5-3-17.6-4.8-25.6c-1.3-6.1-1.7-11.8,1.4-17.5
					c0.7-1.2,0.4-3.9-0.5-4.8c-3.9-3.7-8.2-7-12.5-10.6c-3.7,3.1-6.9,6.1-10.4,8.6c-3.3,2.4-3.7,4.6-2.3,8.5c1.5,4,1.6,8.6,1.5,13
					c-0.1,3.7-1.2,7.4-1.9,11.1c-1,5.2-2,10.4-3.3,17.2c-15.7-23.9-26.2-48.2-34.1-74.3c-3.1,1-5.7,2.3-8.4,2.6
					c-7.8,0.8-10.9,5.6-13,12.5c-10.9,36.1-8.5,71.7,2.6,107.2c1.2,3.7,2.7,5.7,7.1,6.3c8.5,1.2,14.7,8.4,15.4,16.5
					c0.8,8.9-3.7,16.7-11.6,20c-7.6,3.2-16.1,1.3-21.7-4.8c-5.7-6.3-6.3-15.5-2.3-23.2c1.1-2.1,1.4-5.3,0.7-7.5
					c-11-32.2-14.2-65-8.6-98.5c1.2-6.9,3-13.8,4.9-21.9c-11.9,4.2-23,7.8-33.8,12c-17.5,6.9-28.1,19.7-33.1,38
					c-7,25.5-10.6,51.5-13.2,77.7c44.1,38.9,102,62.5,165.4,62.5c63.5,0,121.4-23.7,165.5-62.6C414.8,432.8,413.9,424.2,412.6,415.7
					z"/>
				<path class="st2" d="M341,316.3C341.1,316.3,341.1,316.3,341,316.3c0.2,0,0.3,0.1,0.4,0.1c0-0.1,0-0.3,0-0.4
					C341.3,316.2,341.1,316.3,341,316.3z"/>
			</g>
			<path class="st2" d="M330.4,182.7c7.5,1.4,8.9,3.1,9.2,9.8c0.5,12.6-7.7,24.2-19.6,28.6c-1.7,0.6-3.2,2.9-4,4.7
				c-6.2,14.4-13.7,28.1-24.4,39.8c-11.4,12.4-24.7,21.5-42.6,21.2c-10.6-0.2-19.9-4-28.2-10.1c-17.4-12.8-27.8-30.8-36.2-50.2
				c-1.4-3.4-3.1-5.2-6.9-6.3c-11.2-3.3-20.4-21.7-16.1-32.5c1-2.5,4.7-4,7.1-5.9c-0.7-10.6-1.9-22-2.1-33.4
				c-0.3-22.1,9.2-39.8,26.8-52.7c26.3-19.1,55.6-25.9,87.6-19c11.3,2.4,20.7,8.1,24.4,20.2c0.4,1.3,2.2,2.5,3.6,3.1
				c15.3,6.4,22.4,18.7,24.8,34.4c2.2,14.6-0.1,28.9-2.7,43.2C331,179.1,330.7,180.7,330.4,182.7z"/>
		</g>
	</g>
</g>
</svg>
