<?xml version="1.0" encoding="utf-8"?>
<!-- Generator: Adobe Illustrator 24.1.2, SVG Export Plug-In . SVG Version: 6.00 Build 0)  -->
<svg version="1.1" id="Layer_1" xmlns="http://www.w3.org/2000/svg" xmlns:xlink="http://www.w3.org/1999/xlink" x="0px" y="0px"
	 viewBox="0 0 500 500" style="enable-background:new 0 0 500 500;" xml:space="preserve">
<style type="text/css">
	.st0{fill:#145691;}
	.st1{fill:#1C5C9E;}
	.st2{fill:#FFFFFF;}
</style>
<g>
	<circle class="st0" cx="250.2" cy="250" r="250"/>
	<path class="st1" d="M245.2,0.1C109.5,2.7,0.2,113.6,0.2,250s109.2,247.3,245,249.9V0.1z"/>
</g>
<g>
	
		<image style="overflow:visible;opacity:0.5;" width="349" height="290" xlink:href="A925C527.png"  transform="matrix(1 0 0 1 66.9921 87.9921)">
	</image>
	<g>
		<g>
			<path class="st2" d="M250.4,167.7c24.1-34.6,53.6-52.2,94.7-41.9c55.2,13.8,83.3,81,42.9,138.2c-3.2,4.5-12.5,6.3-19.1,6.4
				c-32.3,0.6-64.6,0.3-99.2,0.3c-3.5-18.9-6.9-40.4-11.7-61.5c-1.2-5.2-6.8-9.4-10.4-14.1c-3.8,4.7-9.6,8.8-11,14.1
				c-3.9,15.2-6,30.8-9.2,48.1c-14.1-18.4-18.6-18.7-28.9-1.2c-6.5,11.1-14.2,16.8-27.1,14.8c-3.9-0.6-8.1,0.6-11.9-0.2
				c-16.1-3.3-36,9.2-48.2-8.2c-16.2-23.1-22.4-49.5-14.6-77.6c9-32.3,30.1-52.9,62.7-60c32.1-7,58.7,4.1,80,28.7
				C242.9,157.5,245.8,161.8,250.4,167.7z"/>
			<path class="st2" d="M137.4,289.8c22.9,0,45.8,0,70.5,0c1.9,8.9,3.3,20.1,6.9,30.6c1.8,5.2,7.7,9,11.7,13.4
				c3.4-4.4,8.6-8.3,9.9-13.2c3.6-13.8,5.5-28.1,12.4-42c2.4,13.2,4.2,26.6,7.4,39.6c1.1,4.4,5.3,10.2,9.1,11
				c3.2,0.7,10.8-4.5,11.2-7.7c4.5-33.4,27.8-32.9,52.8-31c11,0.9,22,0.1,33,0.1c1.4,2.2,2.9,4.4,4.3,6.7c-8,6.4-16,12.9-24.1,19.1
				c-14.2,10.9-27.7,23-43,32.2c-62.6,37.8-39.3,38.9-102.9-1.3c-22.5-14.2-42-33.4-62.8-50.2C135,294.7,136.2,292.3,137.4,289.8z"
				/>
		</g>
	</g>
</g>
</svg>
