<?xml version="1.0" encoding="utf-8"?>
<!-- Generator: Adobe Illustrator 24.1.2, SVG Export Plug-In . SVG Version: 6.00 Build 0)  -->
<svg version="1.1" id="Layer_1" xmlns="http://www.w3.org/2000/svg" xmlns:xlink="http://www.w3.org/1999/xlink" x="0px" y="0px"
	 viewBox="0 0 500 500" style="enable-background:new 0 0 500 500;" xml:space="preserve">
<style type="text/css">
	.st0{fill:#145691;}
	.st1{fill:#1C5C9E;}
	.st2{fill:#FFFFFF;}
</style>
<g>
	<circle class="st0" cx="247.7" cy="251.5" r="250"/>
	<path class="st1" d="M242.7,1.6C106.9,4.2-2.3,115.1-2.3,251.5s109.2,247.3,245,249.9V1.6z"/>
</g>
<path class="st2" d="M2381.3,1220.3c-0.7,4,2.9,8.5-3.2,8.3c-1.2,0-2.3-2.1-3.4-3.2c2.6-1.9-2.1-7.3,3.5-7.5
	C2379.4,1217.8,2380.7,1219.8,2381.3,1220.3z"/>
<path class="st2" d="M2405.6,1223c-2.3,2.5-3.7,5.2-5.4,5.5c-3.4,0.5-4-2.8-3.5-5.2c0.4-2,2.2-3.8,3.4-5.6
	C2401.7,1219.2,2403.3,1220.7,2405.6,1223z M2399.1,1227.4c0.5,0,1.1,0,1.6,0c2-2.9,2.4-5.7-1.6-8.4
	C2399.1,1221.8,2399.1,1224.6,2399.1,1227.4z"/>
<path class="st2" d="M2406.5,1217.2c1.4,0.7,4.2,1.7,4.1,2c-0.7,2.8-1.9,5.4-3,8.2c0.7,0.1,2,0.3,3.3,0.4c0,0.2,0,0.4,0,0.6
	c-1.8,0-3.7,0-6.5,0c1.3-1.9,2.1-3.3,3.1-4.5c3-3.3,2.7-4.4-1.6-5.7C2406.1,1218,2406.3,1217.6,2406.5,1217.2z"/>
<path class="st2" d="M2394.8,1228.4c-1.9,0-3.8,0-5.4,0c-2-3.7,8.7-6.2,0.6-10.9c1.5,0.4,3,0.9,4.5,1.3c-0.9,2.8-1.7,5.6-2.7,8.6
	c0.4,0.1,1.7,0.3,3,0.5C2394.9,1228.1,2394.8,1228.2,2394.8,1228.4z"/>
<path class="st2" d="M2354.9,1218.9c0.1-0.1,1.1-0.6,2.4-1.2c0,3.8,0,7.2,0,10.6c-0.2,0-0.5,0-0.7,0
	C2356.1,1225.5,2355.6,1222.7,2354.9,1218.9z"/>
<path class="st2" d="M2362.8,1218.9c0.3-0.1,1.3-0.6,2.7-1.2c0,3.8,0,7.1,0,10.5c-0.3,0-0.5,0.1-0.8,0.1
	C2364.1,1225.5,2363.6,1222.6,2362.8,1218.9z"/>
<path class="st2" d="M2416.6,1228.4c-0.5-3-1-6-1.6-9.5c0,0,1-0.5,2.4-1.3c0,3.9,0,7.3,0,10.7
	C2417.1,1228.3,2416.8,1228.4,2416.6,1228.4z"/>
<path d="M2399.1,1227.4c0-2.8,0-5.6,0-8.4c4,2.7,3.7,5.5,1.6,8.4C2400.2,1227.4,2399.6,1227.4,2399.1,1227.4z"/>
<g>
	
		<image style="overflow:visible;opacity:0.75;" width="310" height="332" xlink:href="2B1F0D45.png"  transform="matrix(1 0 0 1 84 77)">
	</image>
	<g>
		<g>
			<path class="st2" d="M371.9,279c0,1,0,1.8,0,2.6c0,37.8,0,75.6,0,113.4c0,4.5-1.9,6.4-6.5,6.4c-43.5,0-86.9,0-130.4,0
				c-0.8,0-1.6,0-2.8,0c0-1.1,0-2,0-2.9c0-29.4,0-58.8,0-88.2c0-5.7-1.6-7.2-7.4-7.2c-21.2,0-42.5,0-63.7,0c-4.7,0-6.4,1.7-6.4,6.4
				c0,29.4,0,58.8,0,88.2c0,3.8,0,3.7-3.7,3.7c-7,0-14,0-21-0.1c-4.5,0-6.4-1.9-6.4-6.5c0-37.8,0-75.6,0-113.4
				c0-0.7,0.1-1.5,0.1-2.5c1.9,0.6,3.7,1.3,5.5,1.7c15,2.7,29.9,3.6,44.1-3.5c2-1,3.8-2.6,5.8-3.7c0.7-0.4,2.1-0.4,2.7,0
				c8.5,6.5,18.1,9.2,28.6,8.9c6.4-0.2,12.8-0.4,19.1-1.2c6.1-0.8,11.5-3.8,16.4-7.5c1.2-0.9,2-1.1,3.2-0.1c6.4,5,13.6,8,21.7,8.5
				c8.8,0.6,17.6,1.1,26.3-0.9c5.9-1.3,11.2-3.9,16-7.5c1.3-1,2.1-1,3.4-0.1c8.1,6.1,17.3,9.1,27.4,8.7c6.9-0.2,13.8-0.6,20.6-1.3
				C367,280.9,369.2,279.8,371.9,279z M294.3,370.4c11.7,0,23.4,0,35,0c4.4,0,6.3-1.9,6.3-6.3c0-17.9,0-35.9,0-53.8
				c0-5.4-1.7-7.1-7-7.1c-23,0-45.9,0-68.9,0c-5.1,0-6.8,1.6-6.8,6.8c0,18.1,0,36.2,0,54.3c0,4,2,6.1,6.1,6.1
				C270.7,370.4,282.5,370.4,294.3,370.4z"/>
			<path class="st2" d="M247.6,215.3c-22,0-44,0-65.9,0c-4.3,0-6.4-1.9-6.4-6.3c0-33.9,0-67.8,0-101.8c0-3.7,2.1-5.8,5.8-5.8
				c28.8,0,57.6,0,86.4,0c15.2,0,30.5,0,45.7,0c5.2,0,6.9,1.7,6.9,7c0,33.3,0,66.7,0,100c0,5.1-1.8,6.8-6.8,6.8
				C291.4,215.3,269.5,215.3,247.6,215.3C247.6,215.3,247.6,215.3,247.6,215.3z M232.2,173.8c0,1.3,0,2.3,0,3.2c0,4-0.1,8.1,0,12.1
				c0.1,3.2,2,5.3,5,5.3c6.9,0.1,13.8,0.1,20.7,0c3,0,4.9-2,5.1-5c0.1-1.1,0-2.1,0-3.2c0-4.1,0-8.2,0-12.5c5.1,0,9.8,0,14.6,0
				c4.1,0,6-1.9,6.1-6c0-5.9,0-11.9,0-17.8c0-5.5-1.6-7.2-7.2-7.2c-4.4,0-8.8,0-13.5,0c0-5.1,0-9.8,0-14.6c0-4.1-2-6-6.1-6.1
				c-6,0-12,0-18,0c-5.2,0-6.9,1.7-6.9,7c0,4.5,0,9,0,13.7c-5.1,0-9.9,0-14.6,0c-4.1,0-6.1,2-6.1,6c0,6.3,0,12.5,0,18.8
				c0,4.3,1.9,6.2,6.2,6.2C222.4,173.8,227.1,173.8,232.2,173.8z"/>
			<path class="st2" d="M165,153.2c0,1.9,0,3.5,0,5.2c0,16.5,0,32.9-0.1,49.4c-0.1,7.3,2.4,13,9.1,16.4c0.6,0.3,1.2,1.4,1.2,2.1
				c0.1,11.9,0.1,23.7,0,35.6c0,0.9-0.7,2-1.4,2.6c-4.1,3.6-8.9,6.1-14.3,6.9c-9.2,1.3-18.5,1.8-27.7-0.5
				c-13.9-3.5-24.7-17.8-23.7-32c0.4-6.3,2.1-12.5,3.3-18.7c3.8-19.8,7.6-39.6,11.4-59.4c0.2-1.2,0.4-2.4,0.8-3.6
				c0.7-2.4,2.3-3.9,4.8-3.9C140.5,153.1,152.5,153.2,165,153.2z"/>
			<path class="st2" d="M330.4,153.2c12.6,0,24.7,0,36.8,0c2.5,0,4.2,1.8,4.7,4.6c2.6,13.1,5.1,26.2,7.6,39.2
				c2.4,12.2,4.6,24.4,7.1,36.6c2,9.9-0.4,18.6-6.6,26.3c-6.3,7.8-14.6,11.9-24.6,12.1c-7.2,0.1-14.5,0.9-21.6-1.2
				c-4.5-1.3-8.6-3.3-12.1-6.5c-0.8-0.7-1.5-2-1.5-3.1c-0.1-11.5,0-23-0.1-34.6c0-1.3,0.3-2.2,1.7-2.9c5.7-2.9,8.6-7.7,8.6-14.1
				c0.1-12.8,0-25.7,0-38.5C330.4,165.3,330.4,159.4,330.4,153.2z"/>
			<path class="st2" d="M242.6,225.8c0,3.8,0,7.3,0,10.8c0,8.1-0.1,16.1,0,24.2c0,1.9-0.6,3.1-2,4.2c-5.9,4.5-12.4,7.2-19.8,7.1
				c-7.1-0.1-14.3,0.9-21.4-1.2c-4.6-1.3-8.7-3.4-12.3-6.5c-0.7-0.6-1.4-1.7-1.4-2.6c-0.1-11.7-0.1-23.4,0-35.1
				c0-0.2,0.1-0.5,0.2-0.9C204.6,225.8,223.4,225.8,242.6,225.8z"/>
		</g>
	</g>
</g>
</svg>
