<?xml version="1.0" encoding="utf-8"?>
<!-- Generator: Adobe Illustrator 16.0.0, SVG Export Plug-In . SVG Version: 6.00 Build 0)  -->
<!DOCTYPE svg PUBLIC "-//W3C//DTD SVG 1.1//EN" "http://www.w3.org/Graphics/SVG/1.1/DTD/svg11.dtd">
<svg version="1.1" id="Layer_1" xmlns="http://www.w3.org/2000/svg" xmlns:xlink="http://www.w3.org/1999/xlink" x="0px" y="0px"
	 width="500px" height="500px" viewBox="0 0 500 500" style="enable-background:new 0 0 500 500;" xml:space="preserve">
<style type="text/css">
<![CDATA[
	.st0{clip-path:url(#SVGID_4_);fill:#145691;}
	.st1{clip-path:url(#SVGID_2_);}
	.st2{clip-path:url(#SVGID_6_);}
	.st3{clip-path:url(#SVGID_4_);fill:#1C5C9E;}
	.st4{opacity:0.5;clip-path:url(#SVGID_4_);enable-background:new    ;}
	.st5{clip-path:url(#SVGID_4_);fill:#FFFFFF;}
]]>
</style>
<g>
	<defs>
		<rect id="SVGID_1_" width="500" height="500"/>
	</defs>
	<clipPath id="SVGID_2_">
		<use xlink:href="#SVGID_1_"  style="overflow:visible;"/>
	</clipPath>
	<g class="st1">
		<defs>
			<rect id="SVGID_3_" width="500" height="500"/>
		</defs>
		<clipPath id="SVGID_4_">
			<use xlink:href="#SVGID_3_"  style="overflow:visible;"/>
		</clipPath>
		<path class="st0" d="M252.6,0c138.1,0,250,111.9,250,250c0,138.1-111.9,250-250,250c-138.1,0-250-111.9-250-250
			C2.6,111.9,114.5,0,252.6,0"/>
		<path class="st3" d="M247.6,0.1C111.9,2.7,2.6,113.6,2.6,250c0,136.4,109.2,247.3,245,249.9V0.1z"/>
		<g class="st4">
			<g>
				<defs>
					<rect id="SVGID_5_" x="102" y="44.2" width="284" height="377.7"/>
				</defs>
				<clipPath id="SVGID_6_">
					<use xlink:href="#SVGID_5_"  style="overflow:visible;"/>
				</clipPath>
				<g class="st2">
					<defs>
						<rect id="SVGID_7_" x="102" y="44.2" width="284" height="377.7"/>
					</defs>
					<clipPath id="SVGID_8_">
						<use xlink:href="#SVGID_7_"  style="overflow:visible;"/>
					</clipPath>
					<g style="clip-path:url(#SVGID_8_);">
						
							<image style="overflow:visible;" width="285" height="379" xlink:href="D236D9E.png"  transform="matrix(0.9965 0 0 0.9965 101.9922 44.1572)">
						</image>
					</g>
				</g>
			</g>
		</g>
		<path class="st5" d="M157.7,392.4v-70.8c-5.6,0-10.8,0.3-16-0.1c-8.1-0.6-13.6-6.2-13.8-13.7c-0.1-7.7,5.8-14,14.1-14.1
			c20.2-0.2,40.3-0.2,60.5,0c8.7,0.1,14.3,5.8,14.4,13.7c0.1,7.9-5.3,13.6-14,14.1c-5.2,0.3-10.5,0.1-15.9,0.1v70.8h92.4v-21.3
			c-10.8,1.2-21.2,2.9-31.7,3.3c-10.9,0.4-17.9-8.8-14.5-18.4c2.6-7.2,8.2-9.4,15.6-9.8c25.1-1.1,46.2-10.6,62.4-30.2
			c28.6-34.8,16.4-89-24.4-108c-1.9-0.9-6,0.3-7.8,1.9c-11.2,10.5-22.1,21.4-33.1,32.1c-12.5,12.3-22.9,14-40.5,5.5
			c-3.8,4.2-7.7,9.3-12.3,13.6c-7.4,7.1-15.6,7-21.8,0.4c-5.4-5.8-4.8-13.6,1.9-20.5c3.9-4,8-7.7,11.8-11.3
			c-8-20.5-6.8-26.4,8.4-41.3c23.5-23,47-46,70.6-68.9c14.2-13.8,28-14.2,42.9-1.5c4.4,3.8,8.9,7.6,13.1,11.6
			c12.1,11.4,12.6,26.5,1.1,38.7c-5.2,5.6-10.8,10.9-16.6,16.8c18.1,11.5,32.5,26.3,41.4,45.9c19.1,41.7,7.6,90.7-28.8,118.6
			c-7.4,5.7-10.5,11.3-9.6,20.4c0.7,7.3,0.1,14.7,0.1,23.1h49c3.4,0,6.9,0.1,10.2,0.9c7.2,1.8,10.5,7,10.4,14.1
			c-0.1,6.8-5.7,12.4-12.6,13.3c-1,0.1-2.1,0.1-3.2,0.1H149c-1.3,0-2.7,0.1-4-0.1c-7.1-1.4-11.5-5.6-11.9-12.9
			c-0.5-7.1,2.7-12.5,9.9-14.4C147.8,392.9,152.6,392.9,157.7,392.4 M224.7,225.7c24.7-26.3,48.8-51.9,73.2-77.8
			c-2.9-2.5-7.2-6.3-12.8-11.3c-24.6,26.1-48.8,51.8-73.3,77.8C214.5,216.8,218.7,220.4,224.7,225.7"/>
		<path class="st5" d="M358.9,108.5c0,12.4-11.6,19.6-20.6,13.3c-8.4-5.8-16.1-12.9-23.2-20.3c-4.6-4.8-4.2-11.3,0-16.8
			c4.2-5.4,10.6-8.2,16.1-4.3c9.4,6.7,17.7,14.9,26.1,22.8C358.6,104.5,358.6,107.5,358.9,108.5"/>
	</g>
</g>
</svg>
