<?xml version="1.0" encoding="utf-8"?>
<!-- Generator: Adobe Illustrator 16.0.0, SVG Export Plug-In . SVG Version: 6.00 Build 0)  -->
<!DOCTYPE svg PUBLIC "-//W3C//DTD SVG 1.1//EN" "http://www.w3.org/Graphics/SVG/1.1/DTD/svg11.dtd">
<svg version="1.1" id="Layer_1" xmlns="http://www.w3.org/2000/svg" xmlns:xlink="http://www.w3.org/1999/xlink" x="0px" y="0px"
	 width="500px" height="500px" viewBox="0 0 500 500" style="enable-background:new 0 0 500 500;" xml:space="preserve">
<style type="text/css">
<![CDATA[
	.st0{clip-path:url(#SVGID_4_);fill:#145691;}
	.st1{clip-path:url(#SVGID_2_);}
	.st2{clip-path:url(#SVGID_6_);}
	.st3{clip-path:url(#SVGID_4_);fill:#1C5C9E;}
	.st4{opacity:0.5;clip-path:url(#SVGID_4_);enable-background:new    ;}
	.st5{clip-path:url(#SVGID_4_);fill:#FFFFFF;}
]]>
</style>
<g>
	<defs>
		<rect id="SVGID_1_" width="500" height="500"/>
	</defs>
	<clipPath id="SVGID_2_">
		<use xlink:href="#SVGID_1_"  style="overflow:visible;"/>
	</clipPath>
	<g class="st1">
		<defs>
			<rect id="SVGID_3_" width="500" height="500"/>
		</defs>
		<clipPath id="SVGID_4_">
			<use xlink:href="#SVGID_3_"  style="overflow:visible;"/>
		</clipPath>
		<path class="st0" d="M251.6,0c138.1,0,250,111.9,250,250c0,138.1-111.9,250-250,250c-138.1,0-250-111.9-250-250
			C1.6,111.9,113.5,0,251.6,0"/>
		<path class="st3" d="M246.6,0.1C110.8,2.7,1.6,113.6,1.6,250c0,136.4,109.2,247.3,245,249.9V0.1z"/>
		<g class="st4">
			<g>
				<defs>
					<rect id="SVGID_5_" x="83" y="25.1" width="320" height="415.7"/>
				</defs>
				<clipPath id="SVGID_6_">
					<use xlink:href="#SVGID_5_"  style="overflow:visible;"/>
				</clipPath>
				<g class="st2">
					<defs>
						<rect id="SVGID_7_" x="83" y="25.1" width="320" height="415.7"/>
					</defs>
					<clipPath id="SVGID_8_">
						<use xlink:href="#SVGID_7_"  style="overflow:visible;"/>
					</clipPath>
					<g style="clip-path:url(#SVGID_8_);">
						
							<image style="overflow:visible;" width="321" height="417" xlink:href="B95BA72.png"  transform="matrix(0.9969 0 0 0.9969 82.9917 25.1416)">
						</image>
					</g>
				</g>
			</g>
		</g>
		<path class="st5" d="M321.7,440c-3.4-1.1-7.1-1.8-10.2-3.4c-10.1-5.2-15.9-13.7-16.6-25.1c-0.4-6.2-0.1-12.5-0.2-18.8V390
			c-0.9,0.6-1.5,1-2,1.4c-5,3.6-10.4,6.4-16.2,8.7c-7.1,2.8-13.3-2.4-13.2-9.2c0.1-14.4-1.7-28.6-6-42.4c-2.8-9-6.4-17.6-12.3-25
			c-2.4-3-5.2-5.8-8.3-8.1c-6.8-5-13.9-4.9-20.8,0c-6.7,4.8-11.1,11.4-14.7,18.7c-5.8,11.6-9,24-10.5,36.9c-0.7,6.5-0.9,13-1.2,19.5
			c-0.3,5.4-3.5,9.4-8.6,10.2c-1.1,0.2-2.2,0.1-3.2-0.2c-15.4-4.9-28.6-13.1-38.3-26.3c-8.3-11.5-11.5-24.2-9.9-38.4
			c1.5-13.6,2-27.2,1.1-40.8c-0.4-5.6-2.2-10.7-5.1-15.5c-1.7-2.9-3.4-5.8-5.3-8.5c-7.1-10.2-10.5-21.8-11.2-34
			c-1.4-24.8,7-45.9,25.9-62.2c14.5-12.5,31.6-17.6,50.7-15.8c15.3,1.4,28.7,7.2,40.1,17.5c0.2,0.2,0.5,0.4,0.9,0.7
			c10.5-9.7,22.8-15.6,37.1-17.9c-10.8-23.9-9.6-46.9,4.8-68.8c10.3-15.6,25.1-25.4,43.5-29c37.5-7.4,73.8,16.8,81.1,53.8
			c8,40.6-20.1,76.6-58.7,81.9V222c2.6,1.4,5.7,2.6,8.4,4.6c8.9,6.3,13,15.2,13,26.1c-0.1,44.1-0.1,88.1-0.2,132.2v24
			c0,16.1-10.2,28.2-26.2,30.9c-0.2,0-0.4,0.2-0.7,0.3C326.3,440,324,440,321.7,440 M316.2,197.1c-0.5-0.2-0.7-0.3-0.9-0.3
			c-15.3-2.4-28.5-8.9-39.4-20c-0.3-0.3-0.9-0.6-1.3-0.6c-3.4,0.3-6.9,0.4-10.2,1c-12.3,2.3-22.2,8.6-30.3,18.1
			c-1.3,1.6-3.1,3-5,3.7c-3.9,1.6-7.5,0-10.8-3.9c-13.2-15.9-35.7-22.7-55.2-16c-16.5,5.6-27.4,17.3-33,33.6
			c-5.7,16.7-4.4,32.9,5.2,48.1c1.2,1.9,2.4,3.7,3.5,5.6c3.6,5.8,7.1,11.7,8.3,18.4c1,5.7,1.7,11.5,1.7,17.3
			c-0.1,11.4-0.9,22.8-1.3,34.3c-0.2,3.8-0.7,7.7-0.2,11.4c1.3,10,6.9,17.7,14.5,23.9c2.9,2.4,6.1,4.4,9.5,6.7
			c0.1-1,0.2-1.3,0.2-1.7c1.3-14.7,4.1-29.1,9.6-42.9c4.6-11.3,10.5-21.7,19.7-30c15.3-13.9,34.8-14,50.3-0.4
			c7.5,6.5,12.9,14.6,17.2,23.4c6.8,14,10.4,28.8,12.1,44.2c0.2,2,0.4,4,0.7,6.2c5.1-3.4,8.9-7.6,12.3-12.2c0.7-0.9,1.1-2.2,1.1-3.3
			c0.1-11.6,0.1-23.3,0.1-34.9v-75c0-14,7.6-24.8,20.8-29.5c0.3-0.1,0.7-0.3,0.6-0.3C316.2,213.5,316.2,205.3,316.2,197.1
			 M313.1,330.3L313.1,330.3c-0.1,25.8-0.1,51.6-0.1,77.3c0,1.1,0,2.2,0.1,3.3c0.5,6.5,7,11.7,13.5,10.7s10.7-5.8,10.7-12.5
			c0.1-52.4,0.1-104.8,0.2-157.2c0-1-0.1-2.1-0.3-3.1c-1-6.1-7-10.6-13.1-9.9c-6.6,0.7-10.9,5.7-11,12.5V330.3z M325.4,179.6
			c28-0.1,50.7-22.8,50.6-50.7c0-28-22.7-50.7-50.7-50.6c-28,0-50.6,22.7-50.6,50.7S297.4,179.7,325.4,179.6"/>
		<path class="st5" d="M178.4,185.5c7.3-0.8,12.2,7.3,8.7,13.5c-1.7,3-4.3,4.8-7.7,4.7c-10.7-0.2-21.8,8.1-24.5,21.9
			c-1.1,5.7-0.5,11.2,1.3,16.6c0.3,0.8,0.8,1.6,1.3,2.4c5.5,8.5,10.9,17.1,14.4,26.7c0.8,2.3,1.6,4.5,1,7c-1,3.9-3.9,6.6-8,7.1
			c-3.7,0.4-7.9-1.6-9.1-5.2c-3.4-10.2-9.6-19-15-28.1c-3.5-5.9-4.7-12.7-4.7-19.5c-0.1-15.2,5.4-28,17.2-37.8
			C160.4,189,168.7,185.9,178.4,185.5"/>
		<path class="st5" d="M361.8,128.9c0.1,20-16.2,36.4-36.3,36.6c-20.1,0.1-36.7-16.3-36.7-36.5c0-20,16.3-36.4,36.4-36.4
			C345.4,92.5,361.7,108.7,361.8,128.9 M343.5,129c0-10.1-8.1-18.2-18.2-18.2c-10,0-18.1,8-18.2,18c-0.1,10,8.1,18.3,18.2,18.4
			C335.2,147.3,343.5,139.1,343.5,129"/>
	</g>
</g>
</svg>
