<?xml version="1.0" encoding="utf-8"?>
<!-- Generator: Adobe Illustrator 16.0.0, SVG Export Plug-In . SVG Version: 6.00 Build 0)  -->
<!DOCTYPE svg PUBLIC "-//W3C//DTD SVG 1.1//EN" "http://www.w3.org/Graphics/SVG/1.1/DTD/svg11.dtd">
<svg version="1.1" id="Layer_1" xmlns="http://www.w3.org/2000/svg" xmlns:xlink="http://www.w3.org/1999/xlink" x="0px" y="0px"
	 width="500px" height="500px" viewBox="0 0 500 500" style="enable-background:new 0 0 500 500;" xml:space="preserve">
<style type="text/css">
<![CDATA[
	.st0{opacity:0.2;clip-path:url(#SVGID_4_);}
	.st1{clip-path:url(#SVGID_4_);fill:#145691;}
	.st2{clip-path:url(#SVGID_2_);}
	.st3{clip-path:url(#SVGID_6_);}
	.st4{clip-path:url(#SVGID_4_);fill:#1C5C9E;}
	.st5{clip-path:url(#SVGID_4_);fill:#FFFFFF;}
]]>
</style>
<g>
	<defs>
		<rect id="SVGID_1_" width="500" height="500"/>
	</defs>
	<clipPath id="SVGID_2_">
		<use xlink:href="#SVGID_1_"  style="overflow:visible;"/>
	</clipPath>
	<g class="st2">
		<defs>
			<rect id="SVGID_3_" width="500" height="500"/>
		</defs>
		<clipPath id="SVGID_4_">
			<use xlink:href="#SVGID_3_"  style="overflow:visible;"/>
		</clipPath>
		<path class="st1" d="M253.9,0c138.1,0,250,111.9,250,250c0,138.1-111.9,250-250,250c-138.1,0-250-111.9-250-250
			C3.9,111.9,115.8,0,253.9,0"/>
		<path class="st4" d="M248.9,0.1C113.2,2.7,3.9,113.6,3.9,250c0,136.4,109.2,247.3,245,249.9V0.1z"/>
		<g class="st0">
			<g>
				<defs>
					<rect id="SVGID_5_" x="35" y="55" width="415" height="449"/>
				</defs>
				<clipPath id="SVGID_6_">
					<use xlink:href="#SVGID_5_"  style="overflow:visible;"/>
				</clipPath>
				<g class="st3">
					<defs>
						<rect id="SVGID_7_" x="35" y="55" width="415" height="449"/>
					</defs>
					<clipPath id="SVGID_8_">
						<use xlink:href="#SVGID_7_"  style="overflow:visible;"/>
					</clipPath>
					<g style="clip-path:url(#SVGID_8_);">
						<image style="overflow:visible;" width="415" height="449" xlink:href="5F3C6B.png"  transform="matrix(1 0 0 1 35 55)">
						</image>
					</g>
				</g>
			</g>
		</g>
		<path class="st5" d="M246.2,499.9c-23.7-0.3-52-2.7-78.9-12.7c-7.6-2.8-14.7-7.5-21.5-12c-5-3.3-7-8.8-6.9-15
			c0.2-8.6-0.1-17.2,0.1-25.8c0.4-21.3,10.4-36.3,30.1-44.6c11.5-4.8,23.1-9,34.7-13.5c12.7-5,17.6-12.1,17.6-25.9
			c0-7.7,1.8-15.9-0.5-22.8c-2.2-6.5-9.1-11.3-13.2-17.4c-6.2-9.2-11.7-18.9-17.6-28.3c-1-1.6-2.5-3.3-4.1-3.9
			c-11.9-3.9-20.5-21.7-15.3-33.1c1.6-3.4,1.4-6.2,0.6-9.5c-5.9-23-7.7-46.2-2.7-69.6c5.1-24.2,18.2-42,41.2-52.2
			c4.7-2.1,9.1-5.2,13-8.5c13.6-11.5,28.5-20.3,46.5-22.9c35.2-5.1,67.2,19.2,71.7,54.4c1.5,11.4,0.9,22.5-1.5,33.7
			c-0.4,1.8-0.8,4.1-0.1,5.6c7.4,15.6,4.9,31.1-0.6,46.4c-1.9,5.4-4.9,10.3-7.2,15.6c-0.6,1.5-0.9,3.7-0.3,5.1
			c5.8,13-1.7,30.1-15.3,34.8c-1.3,0.4-2.6,1.8-3.2,3.1c-7,16-17.1,29.8-29.5,42c-1.3,1.3-2.1,3.6-2.2,5.4
			c-0.2,7.8-0.2,15.6-0.1,23.4c0.1,11.6,5.5,19.6,16.5,23.8c11.3,4.3,22.6,8.8,33.8,13.1c21.1,8.2,32.1,23.9,32.3,46.5
			c0.1,7.5-0.3,15,0.1,22.5c0.6,9.4-3.7,15.8-11,20.8c-12.1,8.3-26,12.1-40,15.2C292.5,498.3,271.8,500,246.2,499.9 M293.6,151.4
			c-12.8-21.2-35.1-35.2-61.2-28.7c-21,5.2-38.1,15.3-45.5,37.2c-6.6,19.7-6,39.7-2.5,60.5C215.7,188.5,248.3,159.9,293.6,151.4
			 M324.6,158.7c4.2-20.9-2.7-42.2-19.3-52.7c-17.8-11.2-40.7-10.3-53.4-0.9c4.8,1.3,10,2.2,14.9,4c18.4,6.5,31.7,19.4,41.4,35.8
			C312.4,151.7,318.2,155.3,324.6,158.7 M273.6,172.8c-0.1,0.7-0.1,1.4-0.2,2.1c20.3,10.7,36.3,26.1,49.1,46.6
			c1.8-6.6,3.8-11.8,4.7-17.2c1.6-10,0.9-19.9-6.8-27.7c-4.8-4.8-10-10.2-17.4-9.4C293.1,168.4,283.4,170.9,273.6,172.8"/>
		<path class="st5" d="M373.5,246.2c0.1-7.6,2.9-17.1,8.4-25.8c3.4-5.4,7.4-10.5,9.9-16.3c5.8-12.9,2.7-25.6-2.5-37.9
			c-0.5-1.2-1.3-2.3-1.5-3.5c-0.2-1.1-0.2-2.9,0.4-3.4c0.9-0.7,2.8-1,3.8-0.6c19.1,8.1,27.9,22.9,22.6,43.2
			c-2.1,8.3-7.2,15.8-11.2,23.5c-2.1,4.1-5.1,7.7-7.1,11.8c-5.7,11.1-3.1,22.4,0.2,33.5c1,3.5,3.1,6.6,4.3,10.1
			c0.6,1.7,0.2,3.7,0.3,5.6c-1.8-0.2-3.8,0.2-5.2-0.6C381,278.1,373.4,265.8,373.5,246.2"/>
		<path class="st5" d="M107.3,287.5c-0.4-1.7-1.5-3.6-1-5.1c1.1-3.6,3.3-6.9,4.6-10.5c5.7-15.7,5.7-30.7-5.2-44.7
			c-7.5-9.6-13.1-20.3-13.9-33c-1-18.4,9.4-29.4,24.1-35.6c1-0.4,3.3,0,3.7,0.7c0.6,1.2,0.4,3,0,4.4c-2,6.7-4.7,13.2-6.1,20
			c-2.2,11.3,1.2,21.4,8.2,30.4c8.2,10.7,13,22.6,12.6,36.3c-0.4,16.2-8,27.8-22.1,35.4c-0.8,0.5-1.7,0.9-2.6,1.2
			C109.3,287.1,109,287.2,107.3,287.5"/>
		<path class="st5" d="M79.2,378.3c-3.3,0-4-2.2-2.6-5.7c2.2-5.4,4.6-10.8,6.2-16.5c4-13.4,1.9-25.7-6.6-37
			c-7-9.4-12.9-19.4-14.2-31.4c-2-19.2,7.8-31.2,24-38c1-0.4,3.4,0,3.7,0.7c0.6,1.2,0.4,3-0.1,4.4c-1.9,6.5-4.6,12.9-6,19.5
			c-2.4,11.7,1.3,22,8.4,31.3c6.6,8.6,10.9,18.2,12.2,29.2c2.1,18.1-5.9,33.7-21.9,42.1C81.2,377.5,80,378,79.2,378.3"/>
		<path class="st5" d="M403.4,334.2c0-7.4,4.9-18.5,12.5-28.8c5-6.8,9-14,8.9-22.7c-0.1-9.2-1.8-18-5.9-26.4
			c-0.9-1.8-0.6-4.1-0.9-6.2c2,0.2,4.3-0.1,6.1,0.7c24.6,10.9,27.5,35.7,14,58.5c-1.9,3.3-4,6.6-6.3,9.6
			c-10.7,13.5-10.4,28.2-5.1,43.4c1.2,3.6,3.3,6.9,4.6,10.5c0.5,1.4,0.4,3.5-0.4,4.6c-0.4,0.6-3,0.4-4.2-0.1
			C412,371,403.2,356.6,403.4,334.2"/>
	</g>
</g>
</svg>
