<?xml version="1.0" encoding="utf-8"?>
<!-- Generator: Adobe Illustrator 16.0.0, SVG Export Plug-In . SVG Version: 6.00 Build 0)  -->
<!DOCTYPE svg PUBLIC "-//W3C//DTD SVG 1.1//EN" "http://www.w3.org/Graphics/SVG/1.1/DTD/svg11.dtd">
<svg version="1.1" id="Layer_1" xmlns="http://www.w3.org/2000/svg" xmlns:xlink="http://www.w3.org/1999/xlink" x="0px" y="0px"
	 width="1000px" height="1000px" viewBox="0 0 1000 1000" enable-background="new 0 0 1000 1000" xml:space="preserve">
<path fill="#FEED83" d="M83.482,450.646c0-217.591,188.135-393.982,420.225-393.982c232.088,0,420.238,176.392,420.238,393.982
	c0,217.585-188.15,393.978-420.238,393.978C271.617,844.624,83.482,668.231,83.482,450.646z"/>
<g>
	<g>
		<path fill="#D49B29" d="M401.425,929.915c0,8.969-7.275,16.248-16.254,16.248l0,0c-8.974,0-16.243-7.279-16.243-16.248V782.656
			c0-8.973,7.27-16.248,16.243-16.248l0,0c8.979,0,16.254,7.275,16.254,16.248V929.915z"/>
		<ellipse fill="#D49B29" cx="385.414" cy="964.588" rx="19.57" ry="19.563"/>
		<path fill="#D49B29" d="M292.405,964.588c0,10.807-8.757,19.563-19.57,19.563c-10.808,0-19.565-8.757-19.565-19.563
			s8.758-19.565,19.565-19.565C283.647,945.022,292.405,953.781,292.405,964.588z"/>
		<path fill="#D49B29" d="M508.383,964.588c0,10.807-8.76,19.563-19.573,19.563c-10.802,0-19.565-8.757-19.565-19.563
			s8.763-19.565,19.565-19.565C499.623,945.022,508.383,953.781,508.383,964.588z"/>
		<path fill="#D49B29" d="M504.484,941.361c0,8.589-6.976,15.562-15.571,15.562H268.832c-8.601,0-15.563-6.973-15.563-15.562l0,0
			c0-8.602,6.962-15.567,15.563-15.567h220.082C497.508,925.794,504.484,932.76,504.484,941.361L504.484,941.361z"/>
		<path fill="#D49B29" d="M501.863,518.961c0-69.259-46.72-125.412-104.354-125.412h-41.071
			c-57.629,0-104.359,56.153-104.359,125.412v20.187v107.188v134.979l0,0c0,5.139,4.349,9.305,9.704,9.305h230.37
			c5.361,0,9.705-4.166,9.705-9.305l0,0V646.713c0-0.124,0.006-0.247,0.006-0.378V518.961z"/>
		<path fill="#ECB31F" d="M517.676,506.52c0-69.263-46.727-125.411-104.356-125.411h-41.071
			c-57.634,0-104.353,56.147-104.353,125.411v20.188v107.188v134.984l0,0c0,5.133,4.344,9.298,9.699,9.298h230.378
			c5.344,0,9.693-4.165,9.693-9.298l0,0V634.273c0-0.13,0.01-0.249,0.01-0.379V506.52z"/>
	</g>
	<g>
		<g>
			<g>
				<path fill="#026995" d="M514.529,737.49c-11.471,0-20.764,8.87-20.764,19.819v153.966v33.342v39.806h41.512v-39.806v-33.342
					V757.31C535.277,746.36,525.984,737.49,514.529,737.49z"/>
				<path fill="#010101" d="M583.063,984.027h-89.297v-6.739c3.505-21.49,22.159-37.897,44.649-37.897
					c22.48,0,41.131,16.401,44.648,37.887V984.027z"/>
			</g>
			<path fill="#026995" d="M514.518,729.572c11.467,0,20.76,9.292,20.76,20.759l0,0c0,11.458-9.293,20.75-20.76,20.75h-51.514
				c-11.468,0-20.755-9.292-20.755-20.75l0,0c0-11.467,9.287-20.759,20.755-20.759H514.518z"/>
		</g>
		<g>
			<g>
				<path fill="#026995" d="M435.947,737.49c-11.468,0-20.766,8.87-20.766,19.819v153.966v33.342v39.806h41.52v-39.806v-33.342
					V757.31C456.701,746.36,447.409,737.49,435.947,737.49z"/>
				<path fill="#010101" d="M504.484,984.027h-89.303v-6.739c3.51-21.49,22.167-37.897,44.646-37.897
					c22.491,0,41.131,16.401,44.657,37.887V984.027z"/>
			</g>
			<path fill="#026995" d="M435.947,729.572c11.462,0,20.754,9.292,20.754,20.759l0,0c0,11.458-9.292,20.75-20.754,20.75h-51.528
				c-11.457,0-20.754-9.292-20.754-20.75l0,0c0-11.467,9.298-20.759,20.754-20.759H435.947z"/>
		</g>
		<path fill="#AEDEDE" d="M391.603,435.9c-45.545,0-82.451,36.91-82.451,82.443v173.948c0,2.53,0.157,5.019,0.373,7.496h164.14
			c0.222-2.478,0.379-4.966,0.379-7.496V518.344C474.043,472.81,437.131,435.9,391.603,435.9z"/>
		<path fill="#F29982" d="M374.288,444.39c-4.349,20.628,5.133,40.09,21.188,43.479l0,0c16.06,3.386,32.606-10.583,36.955-31.214
			l16.622-78.786c4.349-20.621-5.133-40.085-21.187-43.474l0,0c-16.065-3.389-32.607,10.583-36.961,31.21L374.288,444.39z"/>
		<g>
			<path fill="#FFFFFF" d="M447.192,483.963c-2.083-11.207,5.306-21.982,16.52-24.07l0,0c11.218-2.088,21.988,5.31,24.07,16.52
				l21.316,114.598c2.088,11.209-5.299,21.983-16.517,24.077l0,0c-11.208,2.082-21.977-5.317-24.06-16.525L447.192,483.963z"/>
			<g>
				<path fill="#FFFFFF" d="M479.188,614.4c-10.413-4.642-15.092-16.845-10.445-27.257l0,0c4.641-10.413,16.85-15.087,27.262-10.451
					l106.455,47.466c10.43,4.646,15.102,16.854,10.451,27.272l0,0c-4.641,10.407-16.846,15.086-27.252,10.439L479.188,614.4z"/>
				<path fill="#F7C2A0" d="M627.449,648.531c3.982,1.779,5.756,6.437,3.982,10.407l0,0c-1.764,3.97-6.416,5.767-10.396,3.981
					l-24.721-11.019c-3.971-1.764-5.756-6.432-3.992-10.402l0,0c1.775-3.97,6.436-5.761,10.406-3.986L627.449,648.531z"/>
				<path fill="#F7C2A0" d="M649.518,645.146c10.42,4.641,15.08,16.85,10.451,27.263l0,0c-4.652,10.406-16.854,15.08-27.262,10.444
					l-19.646-8.758c-10.418-4.646-15.102-16.855-10.461-27.268l0,0c4.643-10.407,16.865-15.086,27.262-10.45L649.518,645.146z"/>
				<path fill="#F29982" d="M650.039,633.132c4.293,0.644,7.258,4.656,6.609,8.962l0,0c-0.66,4.301-4.674,7.254-8.98,6.616
					l-26.752-4.067c-4.307-0.644-7.26-4.674-6.611-8.975l0,0c0.66-4.295,4.662-7.254,8.969-6.6L650.039,633.132z"/>
			</g>
		</g>
		<g>
			
				<rect x="379.041" y="493.097" transform="matrix(0.7072 -0.707 0.707 0.7072 -243.131 425.6152)" fill="#03A4C0" width="26.502" height="26.499"/>
			<path fill="#03A4C0" d="M404.341,537.13v127.823c0,6.653-5.398,12.052-12.051,12.052l0,0c-6.648,0-12.042-5.398-12.042-12.052
				V537.13c0-6.647,5.393-12.046,12.042-12.046l0,0C398.943,525.084,404.341,530.482,404.341,537.13"/>
		</g>
		<g>
			<path fill="#F7C2A0" d="M392.949,221.556c-3.04,14.753-17.483,24.246-32.232,21.192c-14.746-3.045-24.239-17.479-21.199-32.238
				c3.051-14.75,17.488-24.244,32.239-21.19C386.508,192.368,396.005,206.802,392.949,221.556z"/>
			<path fill="#F7C2A0" d="M554.438,254.922c-3.051,14.756-17.484,24.252-32.24,21.198c-14.744-3.048-24.229-17.484-21.189-32.238
				c3.041-14.753,17.48-24.241,32.234-21.198C548,225.736,557.486,240.166,554.438,254.922z"/>
			<path fill="#513F57" d="M597.309,163.499c-14.723,71.298-84.447,117.141-155.736,102.412
				c-71.298-14.732-117.157-84.463-102.417-155.759C353.88,38.862,423.619-6.986,494.912,7.743
				C566.195,22.475,612.043,92.209,597.309,163.499z"/>
			<path fill="#F7C2A0" d="M347.502,313.681c-9.211,44.591,19.468,88.218,64.06,97.427l0,0c44.588,9.22,88.201-19.467,97.415-64.058
				l35.205-170.341c9.205-44.596-19.463-88.215-64.054-97.427l0,0c-44.587-9.214-88.217,19.459-97.434,64.055L347.502,313.681z"/>
			<path fill="#513F57" d="M515.014,86.489c-4.326,20.869-24.727,34.289-45.606,29.972c-20.869-4.313-34.289-24.722-29.972-45.588
				c4.312-20.872,24.72-34.294,45.594-29.98C505.902,45.209,519.32,65.618,515.014,86.489z"/>
			<path fill="#513F57" d="M434.027,230.04c-1.061,5.136-6.086,8.436-11.208,7.375c-5.133-1.065-8.438-6.083-7.373-11.215
				c1.055-5.131,6.075-8.431,11.203-7.368C431.782,219.892,435.081,224.914,434.027,230.04z"/>
			<path fill="#F29982" d="M422.213,240.312c-0.406,1.958-4.884,2.688-10.018,1.623c-5.144-1.063-8.973-3.499-8.573-5.462
				c0.405-1.956,4.9-2.686,10.039-1.624C418.79,235.908,422.618,238.353,422.213,240.312z"/>
			<path fill="#F29982" d="M504.438,257.304c-0.4,1.953-4.895,2.683-10.018,1.624c-5.133-1.058-8.968-3.505-8.568-5.464
				c0.411-1.958,4.901-2.683,10.034-1.625C501.014,252.896,504.838,255.349,504.438,257.304z"/>
			<path fill="#513F57" d="M496.048,242.852c-1.062,5.135-6.091,8.435-11.219,7.372c-5.133-1.06-8.433-6.074-7.373-11.207
				c1.061-5.13,6.075-8.43,11.208-7.37C493.797,232.712,497.102,237.726,496.048,242.852z"/>
			<path fill="#513F57" d="M580.109,148.297c-7.064,34.17-40.494,56.15-74.672,49.09c-34.175-7.064-56.152-40.493-49.093-74.662
				c7.059-34.181,40.488-56.159,74.659-49.097C565.18,80.693,587.172,114.121,580.109,148.297z"/>
			<path fill="#513F57" d="M409.615,41.044c-2.423,11.762-13.923,19.321-25.688,16.898c-11.765-2.434-19.326-13.941-16.887-25.696
				c2.423-11.762,13.923-19.324,25.687-16.89C404.487,17.782,412.049,29.285,409.615,41.044z"/>
			<path fill="#513F57" d="M428.655,22.775c-1.666,8.079-9.584,13.28-17.66,11.605c-8.082-1.668-13.274-9.571-11.603-17.653
				c1.666-8.079,9.569-13.274,17.655-11.611C425.128,6.788,430.321,14.699,428.655,22.775z"/>
			<path fill="#513F57" d="M476.731,88.477c-4.213,20.371-24.135,33.469-44.5,29.263c-20.371-4.208-33.472-24.133-29.264-44.5
				c4.214-20.369,24.141-33.464,44.501-29.261C467.833,48.19,480.935,68.111,476.731,88.477z"/>
			<path fill="#F29982" d="M435.806,279.133c-1.379,6.653,2.115,12.999,7.784,14.167l0,0c5.685,1.177,11.402-3.265,12.782-9.91
				l5.248-25.41c1.378-6.645-2.121-12.988-7.801-14.161l0,0c-5.674-1.176-11.402,3.268-12.771,9.912L435.806,279.133z"/>
			<g>
				<path fill="#CA3553" d="M380.963,323.972c-2.726,10.888-0.941,21.82,4.127,30.91c9.358-6.634,21.431-9.314,33.434-6.309
					c12.003,3.004,21.388,11.062,26.521,21.322c8.741-5.631,15.476-14.437,18.208-25.323c0.417-1.682,0.73-3.373,0.936-5.052
					l-81.673-20.452C381.904,320.653,381.385,322.287,380.963,323.972z"/>
				<path fill="#F06088" d="M418.524,348.573c-12.003-3.005-24.076-0.325-33.434,6.309c5.507,9.877,14.88,17.569,26.71,20.525
					c11.84,2.969,23.729,0.606,33.244-5.512C439.912,359.635,430.527,351.578,418.524,348.573z"/>
				<path fill="#FFFFFF" d="M390.834,305.608c-3.532,3.84-6.367,8.378-8.319,13.46l81.673,20.452
					c0.682-5.398,0.313-10.742-0.996-15.792L390.834,305.608z"/>
			</g>
		</g>
		<path fill="#026995" d="M309.497,699.788c3.797,42.019,39.097,74.949,82.105,74.949c43.003,0,78.298-32.931,82.084-74.949H309.497
			z"/>
		<path fill="#FFFFFF" d="M309.151,518.344V734.85H380V563.564l-43.398-106.633C319.753,472.031,309.151,493.943,309.151,518.344z"
			/>
		<path fill="#FFFFFF" d="M475.71,518.344l0.14,216.506H404.86V563.564l43.392-106.633
			C465.102,472.031,475.71,493.943,475.71,518.344z"/>
		<g>
			<polygon fill="#C6C6C5" points="465.394,472.164 457.989,485.865 450.539,499.541 443.063,513.202 435.528,526.831 
				435.233,526.165 451.95,530.018 452.647,530.178 452.249,530.771 428.677,565.96 416.814,583.503 404.86,600.985 
				416.396,583.224 428.022,565.523 451.428,530.225 451.727,530.979 435.027,527.054 434.437,526.915 434.731,526.388 
				442.328,512.794 449.985,499.233 457.667,485.686 			"/>
		</g>
		<path fill="#FFFFFF" d="M332.205,492.82c4.993-10.257,0.73-22.607-9.536-27.589l0,0c-10.262-4.982-22.605-0.708-27.598,9.55
			L244.139,579.63c-4.977,10.256-0.698,22.599,9.558,27.587l0,0c10.245,4.987,22.594,0.703,27.576-9.543L332.205,492.82z"/>
		<g>
			<polygon fill="#C6C6C5" points="319.461,472.164 327.189,485.686 334.873,499.232 342.531,512.794 350.129,526.388 
				350.423,526.915 349.833,527.054 333.128,530.979 333.427,530.225 356.835,565.523 368.463,583.224 380,600.985 368.045,583.503 
				356.181,565.96 332.605,530.771 332.208,530.178 332.904,530.018 349.627,526.165 349.332,526.831 341.795,513.202 
				334.319,499.541 326.867,485.865 			"/>
		</g>
		<g>
			<g>
				<path fill="#878787" d="M345.279,494.549v39.481c0,1.006,0.811,1.817,1.816,1.817c1.007,0,1.823-0.812,1.823-1.817v-39.481
					c0-20.089,10.624-37.707,26.516-47.652v-4.251C357.444,452.985,345.279,472.353,345.279,494.549z"/>
				<path fill="#878787" d="M434.86,442.646v4.251c15.892,9.945,26.521,27.563,26.521,47.652v60.567
					c0,1.006,0.811,1.816,1.817,1.816c1,0,1.812-0.811,1.812-1.816v-60.567C465.01,472.353,452.845,452.985,434.86,442.646z"/>
			</g>
			<path fill="#010101" d="M452.428,555.116c0-5.951,4.819-10.766,10.764-10.766s10.77,4.814,10.77,10.766
				c0,5.944-4.825,10.764-10.77,10.764S452.428,561.061,452.428,555.116z"/>
			<g>
				<path fill="#010101" d="M362.231,588.923c-1.006,0-1.823-0.812-1.823-1.818v-37.939c0-7.346-5.972-13.317-13.313-13.317
					c-7.34,0-13.317,5.972-13.317,13.317v37.939c0,1.007-0.811,1.818-1.817,1.818c-1.001,0-1.817-0.812-1.817-1.818v-37.939
					c0-9.346,7.6-16.952,16.952-16.952c9.347,0,16.953,7.606,16.953,16.952v37.939C364.048,588.111,363.237,588.923,362.231,588.923
					z"/>
				<path fill="#010101" d="M339.638,590.739h-6.627c-2.006,0-3.635-1.633-3.635-3.635c0-2.012,1.628-3.64,3.635-3.64h6.627
					c2.006,0,3.634,1.628,3.634,3.64C343.272,589.106,341.644,590.739,339.638,590.739z"/>
				<path fill="#010101" d="M361.225,590.739h-6.626c-2.013,0-3.641-1.633-3.641-3.635c0-2.012,1.628-3.64,3.641-3.64h6.626
					c2.007,0,3.635,1.628,3.635,3.64C364.86,589.106,363.232,590.739,361.225,590.739z"/>
			</g>
		</g>
		<g>
			<path fill="#FFFFFF" d="M247.644,606.048c-9.347-6.513-11.63-19.386-5.123-28.744l0,0c6.535-9.342,19.408-11.629,28.75-5.106
				l95.595,66.694c9.353,6.523,11.64,19.388,5.112,28.744l0,0c-6.524,9.354-19.376,11.642-28.739,5.112L247.644,606.048z"/>
			<path fill="#F7C2A0" d="M386.815,667.55c3.576,2.478,4.43,7.395,1.942,10.948l0,0c-2.499,3.57-7.389,4.451-10.969,1.969
				l-22.189-15.497c-3.57-2.482-4.451-7.394-1.958-10.964l0,0c2.494-3.57,7.395-4.447,10.954-1.958L386.815,667.55z"/>
			<path fill="#F7C2A0" d="M409.112,668.372c9.353,6.523,11.64,19.386,5.118,28.733l0,0c-6.519,9.358-19.381,11.651-28.733,5.128
				l-17.661-12.321c-9.343-6.519-11.647-19.393-5.112-28.734l0,0c6.524-9.347,19.397-11.641,28.744-5.122L409.112,668.372z"/>
			<path fill="#F29982" d="M411.893,656.667c4.1,1.449,6.258,5.96,4.798,10.05l0,0c-1.45,4.11-5.961,6.254-10.056,4.803
				l-25.51-9.032c-4.117-1.449-6.248-5.961-4.798-10.051l0,0c1.45-4.111,5.946-6.258,10.04-4.809L411.893,656.667z"/>
		</g>
	</g>
</g>
<g>
	<path fill="#B0AFB0" d="M850.932,986.283c0,4.918-158.096,8.909-353.104,8.909c-195.032,0-353.109-3.991-353.109-8.909
		c0-4.929,158.077-8.908,353.109-8.908C692.836,977.375,850.932,981.354,850.932,986.283z"/>
	<g>
		<rect x="170.78" y="719.143" fill="#009EAA" width="28.712" height="267.51"/>
		<rect x="790.621" y="719.143" fill="#009EAA" width="28.713" height="267.51"/>
		<rect x="234.072" y="719.143" fill="#028989" width="28.711" height="267.51"/>
		<rect x="720.109" y="719.143" fill="#009EAA" width="28.699" height="267.51"/>
		<g>
			<path fill="#009EAA" d="M850.932,707.112c0-15.968-19.818-28.923-44.277-28.923H180.797c-24.444,0-44.268,12.955-44.268,28.923
				c0,4.301,1.477,8.362,4.046,12.03h706.311C849.451,715.475,850.932,711.413,850.932,707.112z"/>
			<path fill="#028989" d="M180.797,736.041h625.857c17.873,0,33.232-6.936,40.232-16.898H140.576
				C147.575,729.105,162.931,736.041,180.797,736.041z"/>
		</g>
	</g>
</g>
<g>
	<g>
		<path fill="#E2E2E2" d="M790.297,595.43c0,20.04-15.168,36.301-33.904,36.301H512.449c-18.727,0-33.911-16.261-33.911-36.301
			V454.778c0-20.043,15.184-36.292,33.911-36.292h243.943c18.736,0,33.904,16.249,33.904,36.292V595.43z"/>
		<path fill="#B0AFB0" d="M804.436,595.43c0,20.04-15.188,36.301-33.904,36.301H526.568c-18.715,0-33.896-16.261-33.896-36.301
			V454.778c0-20.043,15.181-36.292,33.896-36.292h243.963c18.717,0,33.904,16.249,33.904,36.292V595.43z"/>
	</g>
	<path fill="#878787" d="M664.717,665.31c0,7.108-5.766,12.88-12.883,12.88l0,0c-7.119,0-12.885-5.771-12.885-12.88V526.707
		c0-7.113,5.766-12.884,12.885-12.884l0,0c7.117,0,12.883,5.771,12.883,12.884V665.31z"/>
	<path fill="#9B9A9A" d="M671.49,665.31c0,7.108-5.766,12.88-12.885,12.88l0,0c-7.119,0-12.885-5.771-12.885-12.88V526.707
		c0-7.113,5.766-12.884,12.885-12.884l0,0c7.119,0,12.885,5.771,12.885,12.884V665.31z"/>
	<path fill="#9B9A9A" d="M580.867,678.72c0-2.435,33.881-19.111,75.672-19.111c41.781,0,75.664,16.677,75.664,19.111
		C732.203,681.148,580.867,681.148,580.867,678.72z"/>
</g>
</svg>
