<?xml version="1.0" encoding="utf-8"?>
<!-- Generator: Adobe Illustrator 16.0.0, SVG Export Plug-In . SVG Version: 6.00 Build 0)  -->
<!DOCTYPE svg PUBLIC "-//W3C//DTD SVG 1.1//EN" "http://www.w3.org/Graphics/SVG/1.1/DTD/svg11.dtd">
<svg version="1.1" id="Layer_1" xmlns="http://www.w3.org/2000/svg" xmlns:xlink="http://www.w3.org/1999/xlink" x="0px" y="0px"
	 width="1000px" height="1000px" viewBox="0 0 1000 1000" enable-background="new 0 0 1000 1000" xml:space="preserve">
<path fill="#CDDE5C" d="M86.525,396.681C86.525,183,271.482,9.786,499.4,9.786c227.918,0,412.676,173.214,412.676,386.895
	c0,213.679-184.758,386.893-412.676,386.893C271.482,783.574,86.525,610.36,86.525,396.681z"/>
<g>
	<path fill="#B0AFB0" d="M491.644,982.324c0,4.834-69.925,8.754-156.18,8.754c-86.254,0-156.186-3.92-156.186-8.754
		c0-4.828,69.932-8.743,156.186-8.743C421.719,973.581,491.644,977.496,491.644,982.324z"/>
	<g>
		<path fill="#AEDEDE" d="M249.539,689.098c0,44.716,36.243,80.965,80.969,80.965l0,0c44.71,0,80.959-36.249,80.959-80.965V518.278
			c0-44.716-36.249-80.961-80.959-80.961l0,0c-44.726,0-80.969,36.245-80.969,80.961V689.098z"/>
		<path fill="#AEDEDE" d="M249.539,689.098c0,44.716,36.243,80.965,80.969,80.965l0,0c44.71,0,80.959-36.249,80.959-80.965V518.278
			c0-44.716-36.249-80.961-80.959-80.961l0,0c-44.726,0-80.969,36.245-80.969,80.961V689.098z"/>
		<path fill="#F29982" d="M301.324,450.615c0,20.701,13.062,37.478,29.179,37.478l0,0c16.116,0,29.183-16.777,29.183-37.478v-79.072
			c0-20.697-13.067-37.48-29.183-37.48l0,0c-16.117,0-29.179,16.783-29.179,37.48V450.615z"/>
		<path fill="#F7C2A0" d="M274.946,232.48c0,14.793-12,26.791-26.793,26.791s-26.787-11.997-26.787-26.791
			c0-14.793,11.994-26.791,26.787-26.791S274.946,217.688,274.946,232.48z"/>
		<path fill="#F7C2A0" d="M436.867,232.48c0,14.793-11.994,26.791-26.782,26.791c-14.793,0-26.788-11.997-26.788-26.791
			c0-14.793,11.994-26.791,26.788-26.791C424.874,205.69,436.867,217.688,436.867,232.48z"/>
		<path fill="#513F57" d="M459.942,136.038c0,71.487-57.947,129.438-129.435,129.438c-71.493,0-129.445-57.951-129.445-129.438
			S259.015,6.598,330.508,6.598C401.995,6.598,459.942,64.55,459.942,136.038z"/>
		<path fill="#F7C2A0" d="M249.539,330.112c0,44.716,36.243,80.97,80.969,80.97l0,0c44.71,0,80.959-36.253,80.959-80.97V159.296
			c0-44.715-36.249-80.966-80.959-80.966l0,0c-44.726,0-80.969,36.25-80.969,80.966V330.112z"/>
		<path fill="#513F57" d="M365.481,78.332c0,20.927-16.966,37.893-37.89,37.893c-20.929,0-37.895-16.965-37.895-37.893
			c0-20.925,16.966-37.892,37.895-37.892C348.516,40.44,365.481,57.407,365.481,78.332z"/>
		<path fill="#513F57" d="M316.124,232.48c0,5.145-4.171,9.314-9.313,9.314c-5.147,0-9.317-4.169-9.317-9.314
			c0-5.147,4.17-9.314,9.317-9.314C311.953,223.167,316.124,227.333,316.124,232.48z"/>
		<path fill="#F29982" d="M306.812,244.706c0,1.962-4.175,3.553-9.317,3.553c-5.153,0-9.322-1.591-9.322-3.553
			s4.169-3.554,9.322-3.554C302.636,241.152,306.812,242.744,306.812,244.706z"/>
		<path fill="#F29982" d="M389.262,244.706c0,1.962-4.169,3.553-9.316,3.553c-5.148,0-9.322-1.591-9.322-3.553
			s4.174-3.554,9.322-3.554C385.093,241.152,389.262,242.744,389.262,244.706z"/>
		<path fill="#513F57" d="M378.315,232.48c0,5.145-4.17,9.314-9.317,9.314c-5.136,0-9.312-4.169-9.312-9.314
			c0-5.147,4.176-9.314,9.312-9.314C374.145,223.167,378.315,227.333,378.315,232.48z"/>
		<path fill="#513F57" d="M440.369,124.835c0,34.27-27.786,62.054-62.054,62.054c-34.267,0-62.053-27.784-62.053-62.054
			c0-34.267,27.786-62.051,62.053-62.051C412.583,62.785,440.369,90.568,440.369,124.835z"/>
		<path fill="#513F57" d="M255.096,55.574c0,11.792-9.557,21.346-21.35,21.346c-11.797,0-21.348-9.553-21.348-21.346
			c0-11.795,9.551-21.354,21.348-21.354C245.54,34.219,255.096,43.779,255.096,55.574z"/>
		<path fill="#513F57" d="M269.771,34.219c0,8.107-6.571,14.674-14.675,14.674c-8.096,0-14.667-6.567-14.667-14.674
			c0-8.1,6.571-14.671,14.667-14.671C263.2,19.548,269.771,26.12,269.771,34.219z"/>
		<path fill="#513F57" d="M329.069,87.856c0,20.423-16.563,36.979-36.981,36.979c-20.43,0-36.991-16.557-36.991-36.979
			c0-20.426,16.562-36.981,36.991-36.981C312.506,50.875,329.069,67.43,329.069,87.856z"/>
		<path fill="#F29982" d="M327.592,279.344c0,6.667,4.622,12.074,10.315,12.074l0,0c5.694,0,10.316-5.407,10.316-12.074v-25.473
			c0-6.667-4.622-12.077-10.316-12.077l0,0c-5.694,0-10.315,5.41-10.315,12.077V279.344z"/>
		<g>
			<rect x="272.981" y="745.064" fill="#026995" width="38.951" height="236.634"/>
			<path fill="#010101" d="M224.25,981.698h87.683v-6.619c-3.447-21.11-21.757-37.221-43.844-37.221
				c-22.082,0-40.387,16.11-43.839,37.211V981.698z"/>
		</g>
		<g>
			<rect x="347.055" y="745.064" fill="#026995" width="38.947" height="236.634"/>
			<path fill="#010101" d="M434.738,981.698h-87.683v-6.619c3.442-21.11,21.757-37.221,43.844-37.221
				c22.077,0,40.386,16.11,43.839,37.211V981.698z"/>
		</g>
		<g>
			<path fill="#FFFFFF" d="M389.194,493.376c-7.176-8.593-6.035-21.373,2.565-28.552l0,0c8.59-7.179,21.37-6.031,28.547,2.561
				l73.384,87.853c7.184,8.594,6.04,21.376-2.555,28.557l0,0c-8.59,7.171-21.37,6.025-28.551-2.566L389.194,493.376z"/>
			<g>
				<path fill="#FFFFFF" d="M485.748,584.842c-10.3,4.383-22.199-0.425-26.57-10.734l0,0c-4.382-10.307,0.425-22.205,10.725-26.577
					l105.369-44.741c10.305-4.372,22.214,0.435,26.591,10.74l0,0c4.367,10.305-0.435,22.203-10.74,26.581L485.748,584.842z"/>
				<path fill="#F7C2A0" d="M609.512,501.143c3.941-1.668,8.478,0.17,10.146,4.105l0,0c1.667,3.926-0.159,8.463-4.102,10.141
					l-24.456,10.385c-3.941,1.673-8.478-0.165-10.156-4.091l0,0c-1.667-3.936,0.16-8.482,4.102-10.15L609.512,501.143z"/>
				<path fill="#F7C2A0" d="M621.835,483.021c10.306-4.374,22.215,0.431,26.581,10.738l0,0c4.377,10.3-0.425,22.204-10.729,26.582
					l-19.453,8.254c-10.304,4.377-22.214-0.425-26.579-10.729l0,0c-4.377-10.305,0.435-22.212,10.73-26.586L621.835,483.021z"/>
				<path fill="#F29982" d="M613.56,474.604c3.336-2.656,8.202-2.095,10.857,1.247l0,0c2.656,3.348,2.093,8.222-1.253,10.886
					l-20.834,16.499c-3.336,2.667-8.211,2.093-10.867-1.249l0,0c-2.646-3.354-2.093-8.215,1.263-10.871L613.56,474.604z"/>
			</g>
		</g>
		<g>
			<polygon fill="#03A4C0" points="349.589,506.497 331.182,524.896 312.782,506.497 331.182,488.093 			"/>
			<path fill="#03A4C0" d="M343.018,536.728v125.523c0,6.535-5.301,11.835-11.835,11.835l0,0c-6.528,0-11.824-5.3-11.824-11.835
				V536.728c0-6.529,5.296-11.831,11.824-11.831l0,0C337.716,524.896,343.018,530.198,343.018,536.728"/>
		</g>
		<g>
			<path fill="#CA3553" d="M283.759,333.358c-0.453,11.012,3.437,21.173,10.113,28.907c7.682-8.239,18.762-13.218,30.904-12.714
				c12.138,0.505,22.773,6.39,29.747,15.237c7.288-7.153,12.015-16.959,12.473-27.97c0.074-1.706,0.027-3.386-0.107-5.047
				l-82.604-3.434C284.013,329.98,283.838,331.65,283.759,333.358z"/>
			<path fill="#F06088" d="M324.776,349.552c-12.142-0.504-23.222,4.475-30.904,12.714c7.256,8.412,17.801,13.94,29.768,14.438
				c11.984,0.497,22.947-4.141,30.883-11.915C347.549,355.942,336.914,350.057,324.776,349.552z"/>
			<path fill="#FFFFFF" d="M289.612,313.737c-2.634,4.392-4.467,9.324-5.328,14.602l82.604,3.434
				c-0.419-5.328-1.832-10.392-4.095-14.991L289.612,313.737z"/>
		</g>
		<path fill="#026995" d="M249.884,696.46c3.719,41.264,38.389,73.603,80.624,73.603c42.229,0,76.895-32.339,80.608-73.603H249.884z
			"/>
		<path fill="#FFFFFF" d="M249.539,518.278v222.61h69.576V562.686l-42.618-104.715C259.95,472.798,249.539,494.316,249.539,518.278z
			"/>
		<path fill="#FFFFFF" d="M413.102,518.278l0.139,222.61h-69.713V562.686l42.616-104.715
			C402.686,472.798,413.102,494.316,413.102,518.278z"/>
		<g>
			<path fill="#FFFFFF" d="M273.915,495.81c5.238-9.902,1.466-22.167-8.429-27.401l0,0c-9.897-5.247-22.162-1.472-27.405,8.424
				l-53.565,101.162c-5.243,9.891-1.46,22.162,8.43,27.404l0,0c9.89,5.242,22.161,1.46,27.389-8.431L273.915,495.81z"/>
			<g>
				<path fill="#FFFFFF" d="M191.315,606.02c-10.236-4.557-14.836-16.552-10.273-26.771l0,0
					c4.579-10.226,16.563-14.814,26.777-10.252l104.543,46.628c10.226,4.552,14.826,16.541,10.262,26.766l0,0
					c-4.563,10.226-16.546,14.815-26.771,10.258L191.315,606.02z"/>
				<path fill="#F7C2A0" d="M336.904,639.56c3.904,1.732,5.651,6.316,3.904,10.215l0,0c-1.736,3.894-6.3,5.656-10.215,3.914
					l-24.264-10.831c-3.905-1.736-5.663-6.314-3.926-10.214l0,0c1.749-3.899,6.321-5.663,10.216-3.91L336.904,639.56z"/>
				<path fill="#F7C2A0" d="M358.57,636.229c10.226,4.563,14.816,16.541,10.257,26.768l0,0
					c-4.557,10.224-16.546,14.813-26.767,10.262l-19.308-8.615c-10.225-4.553-14.81-16.548-10.257-26.762l0,0
					c4.563-10.225,16.546-14.81,26.766-10.263L358.57,636.229z"/>
				<path fill="#F29982" d="M359.086,624.431c4.218,0.632,7.128,4.579,6.491,8.808l0,0c-0.648,4.217-4.601,7.123-8.828,6.484
					l-26.267-3.988c-4.239-0.637-7.129-4.594-6.491-8.807l0,0c0.643-4.228,4.583-7.14,8.807-6.491L359.086,624.431z"/>
			</g>
		</g>
		<g>
			<polygon fill="#C6C6C5" points="259.664,472.928 267.257,486.205 274.804,499.507 282.326,512.823 289.788,526.173 
				290.082,526.7 289.492,526.839 273.093,530.694 273.392,529.94 296.375,564.605 307.79,581.989 319.114,599.434 307.372,582.269 
				295.72,565.042 272.57,530.487 272.172,529.894 272.869,529.733 289.286,525.95 288.991,526.616 281.59,513.232 274.25,499.815 
				266.934,486.384 			"/>
		</g>
		<g>
			<polygon fill="#C6C6C5" points="402.973,472.928 395.704,486.384 388.39,499.815 381.05,513.232 373.651,526.616 373.356,525.95 
				389.773,529.733 390.47,529.894 390.072,530.487 366.922,565.042 355.271,582.269 343.528,599.434 354.852,581.989 
				366.267,564.605 389.25,529.94 389.549,530.694 373.149,526.839 372.56,526.7 372.854,526.173 380.315,512.823 387.835,499.507 
				395.381,486.205 			"/>
		</g>
		<g>
			<g>
				<path fill="#878787" d="M271.71,494.912v38.771c0,0.988,0.797,1.785,1.78,1.785c0.998,0,1.795-0.797,1.795-1.785v-38.771
					c0-19.729,10.426-37.029,26.038-46.795v-4.175C283.657,454.095,271.71,473.114,271.71,494.912z"/>
				<path fill="#878787" d="M359.686,443.941v4.175c15.601,9.766,26.034,27.066,26.034,46.795v59.477
					c0,0.987,0.802,1.785,1.79,1.785c0.988,0,1.785-0.798,1.785-1.785v-59.477C389.295,473.114,377.348,454.095,359.686,443.941z"/>
			</g>
			<path fill="#010101" d="M376.934,554.389c0-5.844,4.732-10.571,10.565-10.571c5.844,0,10.576,4.728,10.576,10.571
				c0,5.838-4.732,10.57-10.576,10.57C381.667,564.959,376.934,560.227,376.934,554.389z"/>
			<g>
				<path fill="#010101" d="M288.358,587.588c-0.988,0-1.785-0.798-1.785-1.785v-37.258c0-7.214-5.865-13.077-13.083-13.077
					c-7.204,0-13.067,5.863-13.067,13.077v37.258c0,0.987-0.803,1.785-1.791,1.785s-1.791-0.798-1.791-1.785v-37.258
					c0-9.178,7.474-16.646,16.648-16.646c9.184,0,16.658,7.469,16.658,16.646v37.258
					C290.148,586.79,289.347,587.588,288.358,587.588z"/>
				<path fill="#010101" d="M266.17,589.373h-6.506c-1.977,0-3.564-1.604-3.564-3.57c0-1.976,1.588-3.574,3.564-3.574h6.506
					c1.976,0,3.575,1.599,3.575,3.574C269.746,587.769,268.146,589.373,266.17,589.373z"/>
				<path fill="#010101" d="M287.365,589.373h-6.507c-1.971,0-3.569-1.604-3.569-3.57c0-1.976,1.599-3.574,3.569-3.574h6.507
					c1.977,0,3.575,1.599,3.575,3.574C290.94,587.769,289.342,589.373,287.365,589.373z"/>
			</g>
		</g>
	</g>
</g>
<g>
	<path fill="#B0AFB0" d="M822.965,982.324c0,4.834-62.818,8.754-140.309,8.754c-77.501,0-140.318-3.92-140.318-8.754
		c0-4.828,62.817-8.743,140.318-8.743C760.146,973.581,822.965,977.496,822.965,982.324z"/>
	<g>
		<path fill="#513F57" d="M650.827,528.317c5.525-8.68,2.964-20.196-5.704-25.715l0,0c-8.691-5.524-20.206-2.968-25.731,5.71
			l-56.465,88.741c-5.535,8.68-2.974,20.185,5.704,25.72l0,0c8.681,5.524,20.186,2.965,25.711-5.715L650.827,528.317z"/>
		<g>
			<path fill="#F7C2A0" d="M582.602,624.494c9.881-2.911,15.511-13.284,12.59-23.148l0,0c-2.9-9.858-13.28-15.5-23.139-12.584
				l-100.875,29.806c-9.864,2.9-15.51,13.269-12.6,23.139l0,0c2.916,9.857,13.285,15.499,23.149,12.578L582.602,624.494z"/>
			<path fill="#F7C2A0" d="M445.919,637.392c-3.767,1.116-5.918,5.063-4.802,8.829l0,0c1.116,3.761,5.052,5.917,8.828,4.803
				l23.431-6.918c3.772-1.114,5.917-5.077,4.802-8.827l0,0c-1.11-3.772-5.073-5.918-8.823-4.813L445.919,637.392z"/>
			<path fill="#F7C2A0" d="M426.579,631.729c-9.854,2.912-15.489,13.27-12.584,23.139l0,0c2.917,9.869,13.28,15.501,23.144,12.59
				l18.624-5.503c9.869-2.916,15.506-13.269,12.594-23.133l0,0c-2.921-9.876-13.28-15.506-23.143-12.595L426.579,631.729z"/>
			<path fill="#F29982" d="M427.551,620.913c-3.926,0.075-7.044,3.31-6.979,7.235l0,0c0.063,3.931,3.319,7.051,7.245,6.986
				l24.419-0.451c3.93-0.075,7.043-3.315,6.98-7.235l0,0c-0.081-3.93-3.326-7.064-7.241-6.98L427.551,620.913z"/>
		</g>
	</g>
	<path fill="#513F57" d="M622.122,695.26c0,39.01,36.249,70.638,80.965,70.638l0,0c44.715,0,80.963-31.628,80.963-70.638V546.209
		c0-39.021-36.248-70.651-80.963-70.651l0,0c-44.716,0-80.965,31.63-80.965,70.651V695.26z"/>
	<path fill="#F29982" d="M679.842,469.409c0,16.494,10.4,29.867,23.245,29.867l0,0c12.843,0,23.255-13.373,23.255-29.867v-63.004
		c0-16.493-10.412-29.866-23.255-29.866l0,0c-12.845,0-23.245,13.374-23.245,29.866V469.409z"/>
	<path fill="#F7C2A0" d="M637.398,329.706c0,14.794-11.993,26.789-26.792,26.789c-14.788,0-26.783-11.995-26.783-26.789
		c0-14.798,11.995-26.792,26.783-26.792C625.405,302.914,637.398,314.908,637.398,329.706z"/>
	<ellipse fill="#823A1C" cx="692.961" cy="248.259" rx="106.588" ry="106.594"/>
	<path fill="#F7C2A0" d="M611.998,383.959c0,37.008,36.248,67.015,80.963,67.015l0,0c44.716,0,80.964-30.006,80.964-67.015V242.573
		c0-37.013-36.248-67.017-80.964-67.017l0,0c-44.715,0-80.963,30.004-80.963,67.017V383.959z"/>
	<path fill="#513F57" d="M647.491,304.897c0,5.143-4.174,9.315-9.316,9.315c-5.142,0-9.316-4.172-9.316-9.315
		c0-5.144,4.175-9.317,9.316-9.317C643.317,295.58,647.491,299.753,647.491,304.897z"/>
	<path fill="#513F57" d="M709.685,304.897c0,5.143-4.177,9.315-9.317,9.315c-5.143,0-9.318-4.172-9.318-9.315
		c0-5.144,4.176-9.317,9.318-9.317C705.508,295.58,709.685,299.753,709.685,304.897z"/>
	<path fill="#29B6DD" d="M624.311,711.546c8.426,31.154,40.487,54.352,78.776,54.352c38.297,0,70.35-23.197,78.774-54.352H624.311z"
		/>
	<g>
		<path fill="#F7C2A0" d="M638.749,971.28c-0.054,11.198,8.977,10.359,20.185,10.408l0,0c11.198,0.057,20.313,0.976,20.366-10.218
			l0.542-124.419c0.054-11.197-8.978-20.313-20.175-20.371l0,0c-11.197-0.054-20.302,8.982-20.355,20.17L638.749,971.28z"/>
		<path fill="#878787" d="M592.153,981.688h87.688v-6.619c-3.442-21.11-21.759-37.216-43.845-37.216s-40.391,16.105-43.844,37.21
			V981.688z"/>
	</g>
	<g>
		<path fill="#F7C2A0" d="M733.831,971.28c-0.042,11.198,8.987,10.359,20.186,10.408l0,0c11.198,0.057,20.313,0.976,20.366-10.218
			l0.541-124.419c0.054-11.197-8.977-20.313-20.164-20.371l0,0c-11.186-0.054-20.313,8.982-20.366,20.17L733.831,971.28z"/>
		<path fill="#878787" d="M687.234,981.688h87.689v-6.619c-3.441-21.11-21.759-37.216-43.834-37.216
			c-22.086,0-40.401,16.105-43.855,37.21V981.688z"/>
	</g>
	<g>
		<path fill="#CA3553" d="M634.446,366.2c-2.519,5.232-3.974,11.069-3.994,17.255c-0.075,22.27,17.921,40.386,40.188,40.463
			c22.277,0.077,40.392-17.92,40.455-40.193c0.032-6.188-1.38-12.029-3.855-17.276L634.446,366.2z"/>
		<path fill="#F06088" d="M708.388,398.026c-9.477-8.088-21.758-13.012-35.219-13.058c-15.117-0.052-28.843,6.054-38.766,15.958
			c6.47,13.54,20.229,22.939,36.237,22.993C687.862,423.974,702.565,413.206,708.388,398.026z"/>
	</g>
	<path fill="#29B6DD" d="M639.726,852.226c-0.223,11.192,8.658,20.46,19.845,20.689l0,0c11.198,0.233,20.462-8.653,20.696-19.846
		l2.379-114.438c0.233-11.203-8.659-20.456-19.834-20.694l0,0c-11.208-0.234-20.462,8.652-20.695,19.84L639.726,852.226z"/>
	<path fill="#29B6DD" d="M734.82,852.226c-0.234,11.192,8.646,20.46,19.833,20.689l0,0c11.208,0.233,20.462-8.653,20.695-19.846
		l2.38-114.438c0.233-11.203-8.648-20.456-19.846-20.694l0,0c-11.187-0.234-20.451,8.652-20.673,19.84L734.82,852.226z"/>
	<g>
		<path fill="#513F57" d="M789.138,504.574c-4.547-9.24-15.701-13.046-24.943-8.502l0,0c-9.222,4.55-13.035,15.704-8.489,24.937
			l46.426,94.392c4.548,9.227,15.701,13.036,24.946,8.489l0,0c9.231-4.536,13.023-15.702,8.487-24.929L789.138,504.574z"/>
		<g>
			<path fill="#F7C2A0" d="M836.658,610.333c2.157-10.066-4.248-19.973-14.311-22.129l0,0c-10.06-2.146-19.971,4.259-22.117,14.319
				l-22.034,102.851c-2.156,10.06,4.25,19.967,14.311,22.129l0,0c10.06,2.146,19.972-4.26,22.118-14.32L836.658,610.333z"/>
			<path fill="#F7C2A0" d="M782.668,736.554c-0.817,3.847,1.627,7.618,5.461,8.446l0,0c3.836,0.817,7.606-1.62,8.445-5.472
				l5.11-23.87c0.829-3.847-1.625-7.629-5.449-8.446l0,0c-3.846-0.824-7.629,1.624-8.456,5.46L782.668,736.554z"/>
			<path fill="#F7C2A0" d="M768.464,750.839c-2.155,10.055,4.251,19.956,14.312,22.112l0,0c10.05,2.151,19.95-4.25,22.109-14.311
				l4.067-18.989c2.156-10.066-4.249-19.957-14.3-22.119l0,0c-10.071-2.151-19.963,4.254-22.129,14.311L768.464,750.839z"/>
			<path fill="#F29982" d="M759.425,744.824c-1.817,3.48-0.469,7.772,3.016,9.589l0,0c3.475,1.816,7.777,0.45,9.594-3.034
				l11.282-21.661c1.808-3.484,0.446-7.771-3.027-9.584l0,0c-3.495-1.815-7.786-0.461-9.594,3.024L759.425,744.824z"/>
		</g>
	</g>
	<path fill="#823A1C" d="M798.902,184.26c0,26.633-21.589,48.221-48.223,48.221H572.817c-26.634,0-48.21-21.587-48.21-48.221l0,0
		c0-26.631,21.576-48.222,48.21-48.222H750.68C777.313,136.038,798.902,157.628,798.902,184.26L798.902,184.26z"/>
	<path fill="#823A1C" d="M838.05,259.271c0,30.392-24.637,55.034-55.031,55.034c-30.394,0-55.041-24.642-55.041-55.034
		c0-30.395,24.647-55.032,55.041-55.032C813.413,204.239,838.05,228.876,838.05,259.271z"/>
	<path fill="#F7C2A0" d="M799.326,329.706c0,14.794-11.993,26.789-26.782,26.789c-14.799,0-26.793-11.995-26.793-26.789
		c0-14.798,11.994-26.792,26.793-26.792C787.333,302.914,799.326,314.908,799.326,329.706z"/>
	<path fill="#F29982" d="M666.37,350.765L666.37,350.765c-3.048,0-5.546-2.499-5.546-5.553v-26.411c0-3.055,2.498-5.553,5.546-5.553
		l0,0c3.06,0,5.556,2.499,5.556,5.553v26.411C671.926,348.267,669.43,350.765,666.37,350.765z"/>
</g>
</svg>
