<?xml version="1.0" encoding="utf-8"?>
<!-- Generator: Adobe Illustrator 16.0.0, SVG Export Plug-In . SVG Version: 6.00 Build 0)  -->
<!DOCTYPE svg PUBLIC "-//W3C//DTD SVG 1.1//EN" "http://www.w3.org/Graphics/SVG/1.1/DTD/svg11.dtd">
<svg version="1.1" id="Layer_1" xmlns="http://www.w3.org/2000/svg" xmlns:xlink="http://www.w3.org/1999/xlink" x="0px" y="0px"
	 width="1000px" height="1000px" viewBox="0 0 1000 1000" enable-background="new 0 0 1000 1000" xml:space="preserve">
<path fill="#3886C7" d="M0.015,496.07c0-258.826,224.034-468.636,500.106-468.636s499.864,209.81,499.864,468.636
	c0,258.825-223.792,468.635-499.864,468.635S0.015,754.895,0.015,496.07z"/>
<path fill="#FFFFFF" d="M937.798,621.646c0-29.639-14.067-55.977-35.875-72.749c2.122-6.966,3.271-14.354,3.271-22.012
	c0-38.34-28.605-69.977-65.635-74.786c-2.44-23.54-22.333-41.896-46.519-41.896c-11.418,0-21.878,4.097-29.999,10.894
	c-17.012-14.114-38.857-22.604-62.689-22.604c-50.463,0-92.021,38.056-97.588,87.031c-28.113,4.386-49.626,28.702-49.626,58.046
	c0,2.149,0.123,4.271,0.349,6.358c-30.894,12.701-52.655,43.077-52.655,78.551c0,29.259,14.801,55.057,37.321,70.327
	c-3.896,6.492-6.139,14.091-6.139,22.214c0,23.888,19.365,43.252,43.252,43.252c10.467,0,20.064-3.719,27.546-9.905
	c4.147,46.151,42.911,82.329,90.143,82.329c44.236,0,81.039-31.736,88.938-73.678c1.684,0.158,3.388,0.248,5.111,0.248
	c15.501,0,29.462-6.563,39.28-17.052c5.805,4.977,13.333,7.998,21.575,7.998c18.332,0,33.193-14.86,33.193-33.192
	c0-4.787-1.032-9.325-2.856-13.436C913.009,694.558,937.798,661.002,937.798,621.646z M719.247,721.79
	c-2.488,11.05-11.666,17.938-23.349,15.312c-11.048-2.489-16.708-12.719-14.221-23.769c2.631-11.683,12.371-18.111,23.422-15.624
	C716.148,700.197,721.877,710.11,719.247,721.79z M792.696,576.785c-4.834,21.469-20.314,34.235-39.518,48.821
	c-17.588,13.287-25.768,26.042-28.444,42.355l-1.535,8.278l-24.624-5.543l1.215-8.352c1.948-17.473,11.822-34.821,31.874-50.21
	c17.973-13.531,28.64-24.068,31.839-38.275c3.621-16.101-4.064-29.108-23.883-33.902c-11.362-2.559-24.846-1.614-34.089,2.608
	l-3.1-21.596c12.124-5.231,31.258-6.233,47.99-2.465C786.729,526.68,798.1,552.79,792.696,576.785z"/>
<path fill="#FFFFFF" d="M612.647,365.618c25.673,0,47.265-17.439,53.598-41.116c2.501,0.561,5.092,0.881,7.762,0.881
	c19.532,0,35.369-15.834,35.369-35.368c0-18.291-13.886-33.336-31.689-35.176c0.105-1.176,0.181-2.36,0.181-3.564
	c0-21.665-17.563-39.229-39.229-39.229c-21.665,0-39.231,17.563-39.231,39.229c0,1.662,0.139,3.288,0.339,4.896
	c-24.419,5.818-42.585,27.763-42.585,53.962C557.161,340.775,582.004,365.618,612.647,365.618z"/>
<circle fill="#FFFFFF" cx="506.366" cy="241.719" r="29.673"/>
<path fill="#289FD4" d="M326.133,848.26v17.467c0,4.026-3.264,7.289-7.289,7.289h-5.772v1.906c0.141-0.117,0.278-0.236,0.431-0.346
	c0.122-0.086,0.21-0.188,0.278-0.297c8.303,2.421,11.107,13.223,12.654,20.716c1.728,8.375,2.225,16.968,2.488,25.496
	c0.169,5.499,0.203,11.095,0.37,16.697c20.937,7.146,42.525,13.021,64.659,17.521V840.136
	C393.953,840.136,368.548,847.064,326.133,848.26z"/>
<path fill="#2AAAE2" d="M313.073,874.922v-1.906h5.772c4.025,0,7.289-3.263,7.289-7.289V848.26
	c-3.999,0.112-8.137,0.178-12.431,0.178c-49.843,0-78.518-8.302-78.518-8.302v53.931c24.553,14.424,50.538,26.902,77.707,37.211
	v-56.21C312.952,875.019,313.013,874.971,313.073,874.922z"/>
<path fill="#289FD4" d="M326.133,848.26c42.415-1.195,67.819-8.124,67.819-8.124v-6.094c-10.022,1.685-46.419,2.915-67.819,3.512
	V848.26z"/>
<path opacity="0.3" fill="#289FD4" d="M326.133,848.26c42.415-1.195,67.819-8.124,67.819-8.124v-6.094
	c-10.022,1.685-46.419,2.915-67.819,3.512V848.26z"/>
<path fill="#2AAAE2" d="M326.133,848.26v-10.706c-5.03,0.141-9.224,0.245-12.058,0.313v2.603c0,0-66.806-1.466-78.891-8.904v8.57
	c0,0,28.674,8.302,78.518,8.302C317.996,848.438,322.135,848.372,326.133,848.26z"/>
<path opacity="0.3" fill="#289FD4" d="M326.133,848.26v-10.706c-5.03,0.141-9.224,0.245-12.058,0.313v2.603
	c0,0-66.806-1.466-78.891-8.904v8.57c0,0,28.674,8.302,78.518,8.302C317.996,848.438,322.135,848.372,326.133,848.26z"/>
<path fill="#F3F3F3" d="M316.716,837.8c-0.98,0.024-1.857,0.046-2.641,0.064l0,0C314.858,837.846,315.74,837.825,316.716,837.8
	L316.716,837.8z"/>
<path opacity="0.5" fill="#E6E6E5" d="M316.716,837.8c-0.98,0.024-1.857,0.046-2.641,0.064l0,0
	C314.858,837.846,315.74,837.825,316.716,837.8L316.716,837.8z"/>
<path fill="#4E4E4E" d="M705.1,697.709c-11.051-2.487-20.791,3.941-23.422,15.624c-2.487,11.05,3.173,21.279,14.221,23.769
	c11.683,2.627,20.86-4.262,23.349-15.312C721.877,710.11,716.148,700.197,705.1,697.709z"/>
<path fill="#4E4E4E" d="M750.422,518.506c-16.732-3.769-35.866-2.767-47.99,2.465l3.1,21.596c9.243-4.223,22.727-5.167,34.089-2.608
	c19.818,4.794,27.504,17.802,23.883,33.902c-3.199,14.207-13.866,24.744-31.839,38.275c-20.052,15.389-29.926,32.737-31.874,50.21
	l-1.215,8.352l24.624,5.543l1.535-8.278c2.677-16.313,10.856-29.068,28.444-42.355c19.203-14.586,34.684-27.353,39.518-48.821
	C798.1,552.79,786.729,526.68,750.422,518.506z"/>
<path fill="#289FD4" d="M326.436,894.995c-1.547-7.493-4.352-18.295-12.654-20.716c-0.067,0.109-0.156,0.211-0.278,0.297
	c-0.152,0.109-0.29,0.229-0.431,0.346v56.424c5.362,2.031,10.769,3.981,16.221,5.843c-0.167-5.603-0.201-11.198-0.37-16.697
	C328.661,911.963,328.163,903.37,326.436,894.995z"/>
<path opacity="0.1" fill="#289FD4" d="M326.436,894.995c-1.547-7.493-4.352-18.295-12.654-20.716
	c-0.067,0.109-0.156,0.211-0.278,0.297c-0.152,0.109-0.29,0.229-0.431,0.346v56.424c5.362,2.031,10.769,3.981,16.221,5.843
	c-0.167-5.603-0.201-11.198-0.37-16.697C328.661,911.963,328.163,903.37,326.436,894.995z"/>
<path fill="#2AAAE2" d="M312.891,875.067v56.21c0.061,0.022,0.121,0.045,0.182,0.068v-56.424
	C313.013,874.971,312.952,875.019,312.891,875.067z"/>
<path opacity="0.1" fill="#289FD4" d="M312.891,875.067v56.21c0.061,0.022,0.121,0.045,0.182,0.068v-56.424
	C313.013,874.971,312.952,875.019,312.891,875.067z"/>
<g>
	<path fill="#FFFFFF" d="M938,621.636c0-29.639-14.068-55.977-35.875-72.749c2.121-6.966,3.271-14.354,3.271-22.012
		c0-38.34-28.605-69.977-65.635-74.786c-2.441-23.54-22.334-41.896-46.52-41.896c-11.418,0-21.877,4.097-29.998,10.894
		c-17.012-14.114-38.857-22.604-62.689-22.604c-50.463,0-92.021,38.056-97.588,87.031c-28.113,4.386-49.627,28.702-49.627,58.046
		c0,2.149,0.123,4.271,0.35,6.358c-30.895,12.701-52.656,43.077-52.656,78.551c0,29.259,14.801,55.057,37.322,70.327
		c-3.896,6.492-6.139,14.091-6.139,22.214c0,23.888,19.365,43.252,43.252,43.252c10.467,0,20.064-3.719,27.545-9.905
		c4.148,46.151,42.912,82.329,90.143,82.329c44.236,0,81.039-31.736,88.939-73.678c1.684,0.158,3.387,0.248,5.111,0.248
		c15.5,0,29.461-6.563,39.279-17.052c5.805,4.977,13.334,7.998,21.576,7.998c18.332,0,33.193-14.86,33.193-33.192
		c0-4.787-1.033-9.325-2.857-13.436C913.211,694.548,938,660.992,938,621.636z"/>
	<path fill="#FFFFFF" d="M677.889,254.829c0.105-1.176,0.18-2.36,0.18-3.564c0-21.665-17.563-39.229-39.229-39.229
		c-21.664,0-39.23,17.563-39.23,39.229c0,1.662,0.139,3.288,0.338,4.896c-24.418,5.818-42.584,27.763-42.584,53.962
		c0,30.644,24.842,55.486,55.486,55.486c25.672,0,47.264-17.439,53.598-41.116c2.5,0.561,5.092,0.881,7.762,0.881
		c19.531,0,35.369-15.834,35.369-35.368C709.578,271.714,695.691,256.669,677.889,254.829z"/>
	<circle fill="#FFFFFF" cx="506.567" cy="241.709" r="29.673"/>
	<path fill="#603A17" d="M419.137,338.887c0.287-43.467-3.352-73.53-29.924-94.525c0,0,68.863-131.226-31.822-135.997
		c-100.685-4.771-80.166,62.511-152.221,85.416c-72.055,22.905-85.098,61.099-50.648,115c0,0-76.818,17.179,5.316,128.84
		L419.137,338.887z"/>
	<path fill="#FBC3A6" d="M188.303,465.659c0,0,6.523,14.021-13.596,13.462c-20.118-0.56-54.082-83.349,0.957-74.975
		C230.703,412.52,188.303,465.659,188.303,465.659z"/>
	<path fill="#FBC3A6" d="M409.582,400.399c0,0-4.932,14.021,10.279,13.462c15.21-0.56,40.888-83.349-0.725-74.975
		C377.525,347.261,409.582,400.399,409.582,400.399z"/>
	<path fill="#F3F3F3" d="M335.469,551.631c0,0,37.092,22.338,49.822,37.063c12.729,14.726,13.949,241.711,11.435,244.584
		c-2.515,2.874-86.399,4.67-86.399,4.67l-3.531-286.317H335.469z"/>
	<path opacity="0.3" fill="#F3F3F3" d="M385.291,588.694c-7.605-8.798-23.889-20.3-35.779-28.143
		c-0.671-0.444-1.328-0.875-1.971-1.293c-0.283-0.188-0.561-0.368-0.838-0.546c-0.607-0.396-1.195-0.775-1.768-1.145
		c-0.271-0.175-0.537-0.346-0.799-0.513c-0.593-0.381-1.158-0.741-1.702-1.087c-0.179-0.113-0.36-0.229-0.532-0.339
		c-0.585-0.371-1.129-0.713-1.646-1.04c-0.082-0.05-0.18-0.113-0.262-0.163l0,0c-2.807-1.762-4.525-2.796-4.525-2.796h-28.674
		l0.365,29.524c10.934,4.882,18.617,15.037,20.056,28.179c8.99-0.867,12.667-11.524,15.325-20.267
		c15.762,14.7,22.066,45.231,25.939,64.426c5.898,29.23,8.996,60.012,10.523,89.815c1.287,25.069-2.444,52.148-23.869,68.229
		c-10.66,8.002-25.793,13.141-38.457,6.725c-2.537-1.285-4.736-2.904-6.654-4.764l0.303,24.446c0,0,83.885-1.795,86.399-4.667
		C399.24,830.405,398.021,603.42,385.291,588.694z"/>
	<path opacity="0.5" fill="#E6E6E5" d="M321.012,553.7l-4.094,284.091c-4.092,0.101-6.592,0.154-6.592,0.154l-3.531-286.314
		L321.012,553.7z"/>
	<path fill="#F3F3F3" d="M287.449,551.811l-32.176,1.609c-4.447,0.223-8.832-1.054-12.496-3.586
		c-18.042-12.471-71.916-45.317-74.717-47.256c-3.199-2.215,0-62.278,0-62.278l-29.784-13.539c0,0-18.217,80.559-16.247,86.927
		c1.969,6.368,98.711,98.187,112.248,150.373c0,0,0.328,155.21-0.75,164.906c-1.076,9.699,80.75,11.493,80.75,11.493V559.603
		L287.449,551.811z"/>
	<path opacity="0.3" fill="#E6E6E5" d="M269.127,567.797c2.582,1.806,4.326,4.195,5.529,7.089c1.789,4.295,1.666,9.076,2.992,13.49
		c1.906,6.334,6.001,12.614,10.725,17.251c0.459,0.45,3.811,3.964,3.916,3.947c1.127-0.177,2.076-5.984,2.433-7.053
		c1.442-4.325,2.935-8.719,4.896-12.841c3.17-6.67,8.152-12.534,14.659-15.516v-14.563l-26.828-7.792l-29.779,1.49
		C252.096,560.65,263.766,564.046,269.127,567.797z"/>
	<path opacity="0.3" fill="#F3F3F3" d="M312.064,816.158c-22.533,12.67-45.144-3.646-53.694-25.027
		c-5.191-12.984-5.491-27.137-6.251-40.898c-0.954-17.279-1.463-34.427-0.787-51.726c0.625-15.984,3.246-35.748-3.197-50.861
		c-4.568-10.714-10.684-21.471-16.168-31.776c-5.451-10.24-12.74-22.566-24.789-25.727c-7.868-2.065-12.197,0.137-14.457,4.317
		c19.344,24.353,36.427,49.822,41.557,69.601c0,0,0.328,155.21-0.75,164.906c-1.076,9.699,80.75,11.493,80.75,11.493v-25.716
		C313.545,815.222,312.835,815.726,312.064,816.158z"/>
	<path fill="#FBC3A6" d="M310.326,576.773L310.326,576.773c13.885,0,25.143-11.257,25.143-25.143V499.06h-50.285v52.571
		C285.184,565.517,296.439,576.773,310.326,576.773z"/>
	<polygon fill="#F3F3F3" points="143.691,405.099 174.707,420.36 169.785,444.977 134.337,426.761 	"/>
	<polygon opacity="0.3" fill="#E6E6E5" points="136.636,421.437 134.337,426.761 169.785,444.977 171.412,436.838 	"/>
	<path fill="#F3F3F3" d="M335.469,551.631c0,0-2.311,18.764-25.143,25.143c0,0,15.318,7.137,20.823,26.12
		c0,0,14.095-17.021,10.653-47.328C341.803,555.565,339.408,552.186,335.469,551.631z"/>
	<path fill="#F3F3F3" d="M285.184,551.631c0,0,2.309,18.764,25.143,25.143c0,0-15.319,7.137-20.823,26.12
		c0,0-14.095-17.021-10.653-47.328C278.85,555.565,281.244,552.186,285.184,551.631z"/>
	<circle fill="#CDCCCC" cx="306.896" cy="589.619" r="3.431"/>
	<circle fill="#CDCCCC" cx="306.896" cy="617.523" r="3.431"/>
	<circle fill="#CDCCCC" cx="306.896" cy="645.424" r="3.431"/>
	<circle fill="#CDCCCC" cx="306.896" cy="673.326" r="3.431"/>
	<circle fill="#CDCCCC" cx="306.896" cy="701.228" r="3.431"/>
	<path fill="#CDCCCC" d="M303.465,729.132c0,1.894,1.535,3.429,3.43,3.429c1.896,0,3.432-1.535,3.432-3.429
		c0-1.896-1.535-3.433-3.432-3.433C305,725.699,303.465,727.235,303.465,729.132z"/>
	<circle fill="#CDCCCC" cx="306.896" cy="757.032" r="3.431"/>
	<circle fill="#CDCCCC" cx="306.896" cy="784.935" r="3.431"/>
	<circle fill="#CDCCCC" cx="306.896" cy="812.836" r="3.431"/>
	<path fill="#FBC3A6" d="M177.709,348.814c1.48-11.741,3.818-23.772,8.01-34.893c3.727-9.89,9.883-18.547,13.712-28.388h195.045
		c8.145,17.528,11.572,36.606,17.57,55.096c0.972,2.998,3.46,4.388,5.972,4.55c1.682,6.193,3.547,12.374,5.014,18.771
		c2.949,12.865,4.873,26.236,5.76,39.396c1.836,27.234-1.293,55.079-17.931,77.551c-11.591,15.654-25.338,27.246-40.747,37.051
		c-17.265,5.314-35.775,7.178-53.86,7.522c-1.501-1.048-3.328-1.684-5.487-1.66c-15.313,0.16-34.682-4.626-49.007-10.293
		c-15.063-5.958-26.841-18.363-37.88-29.784c-20.548-21.26-35.137-45.542-46.652-72.428
		C176.104,390.501,175.099,369.526,177.709,348.814z"/>
	<path fill="#603A17" d="M170.82,401.469C178.096,512.234,271,547.59,310.326,547.491c39.326-0.096,119.06-38.519,128.015-105.678
		c8.954-67.16-56.282-186.369-56.282-186.369C217.201,181.009,163.543,290.703,170.82,401.469z M194.885,318.687
		c0,0,59.131,33.021,119.393,8.955c60.26-24.066,73.949-38.617,73.949-38.617s52.352,109.936,18.212,147.313
		s-23.851-0.678-75.447,7.436c-41.691,6.558-53.274,44.788-107.563,10.781C169.141,420.546,194.885,318.687,194.885,318.687z"/>
	<path opacity="0.3" fill="#603A17" d="M386.331,276.639c-1.001-3.882-2.597-7.568-4.811-10.914
		c-3.524-5.324-8.47-7.046-14.772-3.951c-1.536,0.754-4.803,6.212-4.988,6.527c-3.369,5.712-4.771,12.907-9.055,18.042
		c-4.593,5.503-12.414,6.434-14.899-1.443c-0.942-2.984,0.823-16.568-5.378-12.947c-2.805,1.638-4.152,9.715-5.527,12.654
		c-2.334,4.986-7.125,14.867-13.479,15.439c-8.684,0.782-3.783-9.206-4.105-13.443c-0.611-8.042-5.615-3.117-8.867,1.041
		c-2.267,2.897-4.102,6.154-6.2,9.172c-3.321,4.774-6.928,8.804-11.632,12.217c-11.42,8.287-24.868,12.007-38.859,12.431
		c-7.665,0.233-14.768-1.248-22.311-2.413c-2.797-0.432-22.609-3.683-25.156,0.378c9.236,4.735,63.135,30.119,117.986,8.213
		c52.765-21.072,69.821-34.849,73.249-37.95C387.801,285.34,387.441,280.94,386.331,276.639z"/>
	<path opacity="0.3" fill="#603A17" d="M388.053,500.537c-18.604,10.731-38.867,16.269-60.791,16.608
		c-28.938,1.419-56.396-4.301-82.373-17.157c-12.162-8.312-24.323-16.622-36.484-24.934c-13.304-10.94-23.862-24.299-32.071-39.03
		c21.987,83.705,99.089,111.556,133.993,111.467c31.356-0.076,88.369-24.542,114.74-68.493
		C414.083,488.285,401.752,495.475,388.053,500.537z"/>
	<g>
		<path fill="#FBC3A6" d="M349.161,477.521c-7.548,2.203,8.784,48.585,8.784,48.585s-21.645,10.712-22.455,21.639
			c-0.809,10.926,20.408,35.703,20.408,35.703l25.613-7.475c0,0,10.545-41.84-9.111-46.893
			C372.4,529.08,360.945,474.082,349.161,477.521z"/>
		<path opacity="0.3" fill="#FBC3A6" d="M357.836,570.656c-4.503,0-8.82-0.576-12.9-1.635c5.344,7.86,10.963,14.426,10.963,14.426
			l25.613-7.475c0,0,1.765-7.013,2.504-15.641C376.65,566.651,367.445,570.656,357.836,570.656z"/>
		<path fill="#F3F3F3" d="M391.074,713.935c-1.298,1.371,11.162,45.73,40.768,35.294s-0.595-66.12-0.595-66.12l-42.123-96.785
			l-30.462,14.936L391.074,713.935z"/>
		<path opacity="0.3" fill="#F3F3F3" d="M439.796,734.074c-6.81,4.362-18.452,4.466-24.191-1.996
			c-13.443-15.133-21.774-32.511-29.257-51.189c-8.061-20.124-15.455-41.058-15.51-62.995
			c-0.035-14.259,12.228-21.275,23.183-20.318l-4.896-11.252l-30.462,14.936l32.412,112.676
			c-1.298,1.371,11.162,45.729,40.768,35.294c9.196-3.242,12.617-10.854,12.969-19.802
			C443.49,731.196,441.829,732.772,439.796,734.074z"/>
		<polygon fill="#F3F3F3" points="385.789,569.239 353.914,582.614 357.354,607.482 393.828,591.422 		"/>
		<polygon opacity="0.3" fill="#E6E6E5" points="391.643,585.391 356.258,599.567 357.354,607.482 393.828,591.422 		"/>
	</g>
	<path fill="none" stroke="#412312" stroke-width="2.8466" stroke-linecap="round" stroke-miterlimit="10" d="M362.652,468.901
		c0,0-47.699-12.059-43.994,6.579"/>
	<circle fill="#412312" cx="253.031" cy="394.516" r="14.654"/>
	<circle fill="#412312" cx="374.558" cy="371.793" r="14.655"/>
	<path fill="#F7A486" d="M312.591,419.441c2.192,9.343,11.544,15.14,20.888,12.948c9.342-2.193,15.139-11.544,12.947-20.887
		c-2.192-9.344-15.155-30.53-24.498-28.337C312.584,385.356,310.398,410.098,312.591,419.441z"/>
	<path opacity="0.3" fill="#F7A486" d="M338.379,424.908c-10.844,0-20.264-4.427-26.53-11.84c0.094,2.478,0.344,4.68,0.742,6.373
		c2.192,9.343,11.544,15.14,20.888,12.948c4.859-1.14,8.743-4.226,11.06-8.231C342.529,424.641,340.468,424.908,338.379,424.908z"/>
	<path fill="none" stroke="#603A17" stroke-width="4.2699" stroke-linecap="round" stroke-miterlimit="10" d="M384.338,338.292
		c0,0-12.895,16.676-36.951,13.354"/>
	<path fill="none" stroke="#603A17" stroke-width="4.2699" stroke-linecap="round" stroke-miterlimit="10" d="M215.482,358.259
		c0,0,13.679-16.039,37.549-11.564"/>
	<path fill="#FBC3A6" d="M146.102,406.393c0-5.605-17.869-41.913-16.966-52.747c0.902-10.835,3.389-34.311,8.466-36.794
		c5.078-2.483,23.136-4.064,22.911,0c-0.226,4.063-1.837,9.931-15.704,10.383l-1.227,13.769c0,0,8.353-8.126,14.221-7.9
		c5.869,0.226,26.41,18.881,24.831,27.273c-1.581,8.393-13.995,16.518-13.995,16.518s14.672,7.675,1.806,41.76L146.102,406.393z"/>
	<path opacity="0.3" fill="#FBC3A6" d="M164.713,398.411c-7.479,0.714-15.808-1.394-22.938-5.084
		c2.477,6.281,4.326,11.263,4.326,13.065l24.343,12.262c3.51-9.297,4.96-16.617,5.229-22.363
		C172.088,397.367,168.387,398.06,164.713,398.411z"/>
	
		<ellipse transform="matrix(0.7943 0.6076 -0.6076 0.7943 287.6424 -69.5164)" fill="#F3F3F3" cx="246.465" cy="389.959" rx="4.239" ry="6.952"/>
	
		<ellipse transform="matrix(0.7942 0.6077 -0.6077 0.7942 298.4818 -148.2267)" fill="#F3F3F3" cx="368.054" cy="366.508" rx="4.238" ry="6.953"/>
	
		<ellipse transform="matrix(0.9652 -0.2614 0.2614 0.9652 -104.7261 77.3452)" fill="#F7A486" cx="238.376" cy="432.336" rx="15.707" ry="8.153"/>
	
		<ellipse transform="matrix(0.9652 -0.2614 0.2614 0.9652 -87.5365 120.4902)" fill="#F7A486" cx="409.14" cy="389.284" rx="15.708" ry="8.153"/>
	<g>
		<path fill="#4E4E4E" d="M681.879,713.323c2.631-11.683,12.371-18.111,23.422-15.624c11.049,2.488,16.777,12.401,14.148,24.081
			c-2.488,11.05-11.666,17.938-23.35,15.312C685.053,734.603,679.393,724.373,681.879,713.323z M698.777,670.688l1.215-8.352
			c1.947-17.473,11.822-34.821,31.873-50.21c17.973-13.531,28.641-24.068,31.84-38.275c3.621-16.101-4.064-29.108-23.883-33.902
			c-11.363-2.559-24.846-1.614-34.09,2.608l-3.1-21.596c12.125-5.231,31.258-6.233,47.99-2.465
			c36.307,8.174,47.678,34.284,42.275,58.279c-4.834,21.469-20.314,34.235-39.518,48.821
			c-17.588,13.287-25.768,26.042-28.445,42.355l-1.535,8.278L698.777,670.688z"/>
	</g>
</g>
</svg>
